<svg xmlns="http://www.w3.org/2000/svg" xmlns:xlink="http://www.w3.org/1999/xlink" width="500" zoomAndPan="magnify" viewBox="0 0 375 374.999991" height="500" preserveAspectRatio="xMidYMid meet" version="1.0"><defs><clipPath id="b6923abe6b"><path d="M 13.675781 13.675781 L 361.675781 13.675781 L 361.675781 361.675781 L 13.675781 361.675781 Z M 13.675781 13.675781 " clip-rule="nonzero"/></clipPath></defs><g clip-path="url(#b6923abe6b)"><path fill="#ffffff" d="M 310.707031 64.640625 C 277.84375 31.777344 234.152344 13.675781 187.675781 13.675781 C 141.199219 13.675781 97.503906 31.777344 64.640625 64.640625 C 31.777344 97.503906 13.675781 141.199219 13.675781 187.675781 C 13.675781 234.148438 31.777344 277.84375 64.640625 310.707031 C 97.503906 343.574219 141.199219 361.671875 187.675781 361.671875 C 234.152344 361.671875 277.84375 343.574219 310.707031 310.707031 C 343.574219 277.84375 361.671875 234.148438 361.671875 187.675781 C 361.671875 141.199219 343.574219 97.503906 310.707031 64.640625 Z M 72.535156 72.535156 C 103.289062 41.78125 144.179688 24.84375 187.675781 24.84375 C 231.167969 24.84375 272.058594 41.78125 302.8125 72.535156 C 333.566406 103.289062 350.503906 144.179688 350.503906 187.675781 C 350.503906 223.828125 338.789062 258.179688 317.171875 286.414062 C 299.96875 262.355469 272.5 248.144531 242.664062 248.144531 L 132.683594 248.144531 C 102.847656 248.144531 75.378906 262.355469 58.175781 286.414062 C 36.558594 258.179688 24.84375 223.828125 24.84375 187.675781 C 24.84375 144.179688 41.78125 103.289062 72.535156 72.535156 Z M 187.675781 238.972656 C 232.378906 238.972656 268.75 202.601562 268.75 157.898438 C 268.75 113.195312 232.378906 76.824219 187.675781 76.824219 C 142.96875 76.824219 106.597656 113.195312 106.597656 157.898438 C 106.597656 202.601562 142.96875 238.972656 187.675781 238.972656 Z M 187.675781 238.972656 " fill-opacity="1" fill-rule="nonzero"/></g></svg>