<svg xmlns="http://www.w3.org/2000/svg" xmlns:xlink="http://www.w3.org/1999/xlink" width="500" zoomAndPan="magnify" viewBox="0 0 375 374.999991" height="500" preserveAspectRatio="xMidYMid meet" version="1.0"><defs><clipPath id="c03b60e123"><path d="M 14.765625 14.765625 L 360.515625 14.765625 L 360.515625 360.515625 L 14.765625 360.515625 Z M 14.765625 14.765625 " clip-rule="nonzero"/></clipPath><clipPath id="b8731945c1"><path d="M 102.894531 69 L 272.394531 69 L 272.394531 306 L 102.894531 306 Z M 102.894531 69 " clip-rule="nonzero"/></clipPath></defs><g clip-path="url(#c03b60e123)"><path fill="#ffffff" d="M 360.515625 187.640625 C 360.515625 190.46875 360.445312 193.296875 360.304688 196.121094 C 360.167969 198.949219 359.957031 201.769531 359.679688 204.582031 C 359.402344 207.398438 359.058594 210.207031 358.644531 213.003906 C 358.226562 215.804688 357.742188 218.589844 357.191406 221.363281 C 356.640625 224.140625 356.019531 226.898438 355.332031 229.644531 C 354.644531 232.386719 353.890625 235.113281 353.070312 237.820312 C 352.25 240.53125 351.363281 243.214844 350.410156 245.878906 C 349.457031 248.542969 348.4375 251.179688 347.355469 253.796875 C 346.273438 256.410156 345.125 258.996094 343.917969 261.550781 C 342.707031 264.109375 341.433594 266.636719 340.101562 269.132812 C 338.765625 271.625 337.375 274.085938 335.917969 276.515625 C 334.464844 278.941406 332.949219 281.332031 331.378906 283.683594 C 329.808594 286.035156 328.179688 288.347656 326.492188 290.621094 C 324.808594 292.894531 323.066406 295.121094 321.273438 297.308594 C 319.476562 299.496094 317.632812 301.636719 315.730469 303.734375 C 313.832031 305.832031 311.878906 307.878906 309.878906 309.878906 C 307.878906 311.878906 305.832031 313.832031 303.734375 315.730469 C 301.636719 317.632812 299.496094 319.476562 297.308594 321.273438 C 295.121094 323.066406 292.894531 324.808594 290.621094 326.492188 C 288.347656 328.179688 286.035156 329.808594 283.683594 331.378906 C 281.332031 332.949219 278.941406 334.464844 276.515625 335.917969 C 274.085938 337.375 271.625 338.765625 269.132812 340.101562 C 266.636719 341.433594 264.109375 342.707031 261.550781 343.917969 C 258.996094 345.125 256.410156 346.273438 253.796875 347.355469 C 251.179688 348.4375 248.542969 349.457031 245.878906 350.410156 C 243.214844 351.363281 240.53125 352.25 237.820312 353.070312 C 235.113281 353.890625 232.386719 354.644531 229.644531 355.332031 C 226.898438 356.019531 224.140625 356.640625 221.363281 357.191406 C 218.589844 357.742188 215.804688 358.226562 213.003906 358.644531 C 210.207031 359.058594 207.398438 359.402344 204.582031 359.679688 C 201.769531 359.957031 198.949219 360.167969 196.121094 360.304688 C 193.296875 360.445312 190.46875 360.515625 187.640625 360.515625 C 184.808594 360.515625 181.980469 360.445312 179.15625 360.304688 C 176.332031 360.167969 173.511719 359.957031 170.695312 359.679688 C 167.878906 359.402344 165.070312 359.058594 162.273438 358.644531 C 159.472656 358.226562 156.6875 357.742188 153.914062 357.191406 C 151.136719 356.640625 148.378906 356.019531 145.632812 355.332031 C 142.890625 354.644531 140.164062 353.890625 137.457031 353.070312 C 134.75 352.25 132.0625 351.363281 129.398438 350.410156 C 126.734375 349.457031 124.097656 348.4375 121.484375 347.355469 C 118.867188 346.273438 116.28125 345.125 113.726562 343.917969 C 111.167969 342.707031 108.640625 341.433594 106.144531 340.101562 C 103.652344 338.765625 101.191406 337.375 98.761719 335.917969 C 96.335938 334.464844 93.945312 332.949219 91.59375 331.378906 C 89.242188 329.808594 86.929688 328.179688 84.65625 326.492188 C 82.386719 324.808594 80.15625 323.066406 77.96875 321.273438 C 75.78125 319.476562 73.640625 317.632812 71.542969 315.730469 C 69.445312 313.832031 67.398438 311.878906 65.398438 309.878906 C 63.398438 307.878906 61.445312 305.832031 59.546875 303.734375 C 57.648438 301.636719 55.800781 299.496094 54.003906 297.308594 C 52.210938 295.121094 50.46875 292.894531 48.785156 290.621094 C 47.097656 288.347656 45.46875 286.035156 43.898438 283.683594 C 42.328125 281.332031 40.8125 278.941406 39.359375 276.515625 C 37.90625 274.085938 36.511719 271.625 35.175781 269.132812 C 33.84375 266.636719 32.570312 264.109375 31.363281 261.550781 C 30.152344 258.996094 29.007812 256.410156 27.921875 253.796875 C 26.839844 251.179688 25.824219 248.542969 24.871094 245.878906 C 23.917969 243.214844 23.027344 240.53125 22.207031 237.820312 C 21.386719 235.113281 20.632812 232.386719 19.945312 229.644531 C 19.257812 226.898438 18.636719 224.140625 18.085938 221.363281 C 17.535156 218.589844 17.050781 215.804688 16.636719 213.003906 C 16.21875 210.207031 15.875 207.398438 15.597656 204.582031 C 15.320312 201.769531 15.109375 198.949219 14.972656 196.121094 C 14.832031 193.296875 14.765625 190.46875 14.765625 187.640625 C 14.765625 184.808594 14.832031 181.980469 14.972656 179.15625 C 15.109375 176.332031 15.320312 173.511719 15.597656 170.695312 C 15.875 167.878906 16.21875 165.070312 16.636719 162.273438 C 17.050781 159.472656 17.535156 156.6875 18.085938 153.914062 C 18.636719 151.136719 19.257812 148.378906 19.945312 145.632812 C 20.632812 142.890625 21.386719 140.164062 22.207031 137.457031 C 23.027344 134.75 23.917969 132.0625 24.871094 129.398438 C 25.824219 126.734375 26.839844 124.097656 27.921875 121.484375 C 29.007812 118.867188 30.152344 116.28125 31.363281 113.726562 C 32.570312 111.167969 33.84375 108.640625 35.175781 106.144531 C 36.511719 103.652344 37.90625 101.191406 39.359375 98.761719 C 40.8125 96.335938 42.328125 93.945312 43.898438 91.59375 C 45.46875 89.242188 47.097656 86.929688 48.785156 84.65625 C 50.46875 82.386719 52.210938 80.15625 54.003906 77.96875 C 55.800781 75.78125 57.648438 73.640625 59.546875 71.542969 C 61.445312 69.445312 63.398438 67.398438 65.398438 65.398438 C 67.398438 63.398438 69.445312 61.445312 71.542969 59.546875 C 73.640625 57.648438 75.78125 55.800781 77.96875 54.003906 C 80.15625 52.210938 82.386719 50.46875 84.65625 48.785156 C 86.929688 47.097656 89.242188 45.46875 91.59375 43.898438 C 93.945312 42.328125 96.335938 40.8125 98.761719 39.359375 C 101.191406 37.90625 103.652344 36.511719 106.144531 35.175781 C 108.640625 33.84375 111.167969 32.570312 113.726562 31.363281 C 116.28125 30.152344 118.867188 29.007812 121.484375 27.921875 C 124.097656 26.839844 126.734375 25.824219 129.398438 24.871094 C 132.0625 23.917969 134.75 23.027344 137.457031 22.207031 C 140.164062 21.386719 142.890625 20.632812 145.632812 19.945312 C 148.378906 19.257812 151.136719 18.636719 153.914062 18.085938 C 156.6875 17.535156 159.472656 17.050781 162.273438 16.636719 C 165.070312 16.21875 167.878906 15.875 170.695312 15.597656 C 173.511719 15.320312 176.332031 15.109375 179.15625 14.972656 C 181.980469 14.832031 184.808594 14.765625 187.640625 14.765625 C 190.46875 14.765625 193.296875 14.832031 196.121094 14.972656 C 198.949219 15.109375 201.769531 15.320312 204.582031 15.597656 C 207.398438 15.875 210.207031 16.21875 213.003906 16.636719 C 215.804688 17.050781 218.589844 17.535156 221.363281 18.085938 C 224.140625 18.636719 226.898438 19.257812 229.644531 19.945312 C 232.386719 20.632812 235.113281 21.386719 237.820312 22.207031 C 240.53125 23.027344 243.214844 23.917969 245.878906 24.871094 C 248.542969 25.824219 251.179688 26.839844 253.796875 27.921875 C 256.410156 29.007812 258.996094 30.152344 261.550781 31.363281 C 264.109375 32.570312 266.636719 33.84375 269.132812 35.175781 C 271.625 36.511719 274.085938 37.90625 276.515625 39.359375 C 278.941406 40.8125 281.332031 42.328125 283.683594 43.898438 C 286.035156 45.46875 288.347656 47.097656 290.621094 48.785156 C 292.894531 50.46875 295.121094 52.210938 297.308594 54.003906 C 299.496094 55.800781 301.636719 57.648438 303.734375 59.546875 C 305.832031 61.445312 307.878906 63.398438 309.878906 65.398438 C 311.878906 67.398438 313.832031 69.445312 315.730469 71.542969 C 317.632812 73.640625 319.476562 75.78125 321.273438 77.96875 C 323.066406 80.15625 324.808594 82.386719 326.492188 84.65625 C 328.179688 86.929688 329.808594 89.242188 331.378906 91.59375 C 332.949219 93.945312 334.464844 96.335938 335.917969 98.761719 C 337.375 101.191406 338.765625 103.652344 340.101562 106.144531 C 341.433594 108.640625 342.707031 111.167969 343.917969 113.726562 C 345.125 116.28125 346.273438 118.867188 347.355469 121.484375 C 348.4375 124.097656 349.457031 126.734375 350.410156 129.398438 C 351.363281 132.0625 352.25 134.75 353.070312 137.457031 C 353.890625 140.164062 354.644531 142.890625 355.332031 145.632812 C 356.019531 148.378906 356.640625 151.136719 357.191406 153.914062 C 357.746094 156.6875 358.226562 159.472656 358.644531 162.273438 C 359.058594 165.070312 359.402344 167.878906 359.679688 170.695312 C 359.957031 173.511719 360.167969 176.332031 360.304688 179.15625 C 360.445312 181.980469 360.515625 184.808594 360.515625 187.640625 Z M 360.515625 187.640625 " fill-opacity="1" fill-rule="nonzero"/></g><g clip-path="url(#b8731945c1)"><path fill="#1c2826" d="M 201.410156 69.222656 L 201.410156 99.816406 C 146.621094 102.296875 102.949219 147.417969 102.949219 202.808594 C 102.949219 259.777344 149.148438 305.964844 206.140625 305.964844 C 210.917969 305.964844 215.617188 305.613281 220.226562 304.980469 C 176.296875 304.914062 140.714844 269.292969 140.714844 225.363281 C 140.714844 187.917969 166.574219 156.527344 201.410156 148.027344 L 201.410156 178.007812 L 270.460938 128.058594 L 270.546875 127.992188 L 272.398438 126.652344 L 201.410156 69.222656 " fill-opacity="1" fill-rule="nonzero"/></g></svg>