<svg xmlns="http://www.w3.org/2000/svg" xmlns:xlink="http://www.w3.org/1999/xlink" width="1500" zoomAndPan="magnify" viewBox="0 0 1125 412.499988" height="550" preserveAspectRatio="xMidYMid meet" version="1.0"><defs><g/><clipPath id="53d19643b3"><path d="M 80.757812 207 L 1110.757812 207 L 1110.757812 397 L 80.757812 397 Z M 80.757812 207 " clip-rule="nonzero"/></clipPath><clipPath id="20973af1b6"><path d="M 236 221.671875 L 324.355469 221.671875 L 324.355469 383 L 236 383 Z M 236 221.671875 " clip-rule="nonzero"/></clipPath><clipPath id="82e210278b"><path d="M 505.144531 318.894531 L 989.96875 318.894531 L 989.96875 359.1875 L 505.144531 359.1875 Z M 505.144531 318.894531 " clip-rule="nonzero"/></clipPath></defs><g clip-path="url(#53d19643b3)"><path fill="#ffffff" d="M 1070.363281 223.234375 C 1064.496094 221.175781 1056.683594 220.40625 1048.742188 219.730469 C 1049.277344 219.324219 1049.484375 218.695312 1049.425781 217.902344 C 1044.96875 217.753906 1043.105469 219.28125 1038.289062 218.902344 C 1039.78125 217.945312 1038.578125 217.167969 1036.1875 217.546875 C 1037.5625 216.371094 1041.882812 217.089844 1041.765625 218.414062 C 1042.648438 218.289062 1042.46875 217.503906 1041.757812 217.503906 C 1053.101562 218.117188 1064.792969 216.230469 1074.507812 218.167969 C 1068.804688 214.230469 1050.289062 214.3125 1041.722656 212.023438 C 1042.261719 210.964844 1046.027344 211.550781 1045.214844 212.910156 C 1046.132812 212.445312 1047.804688 212.453125 1047.988281 211.519531 C 1055.542969 213.015625 1064.132812 213.578125 1071.683594 213.179688 C 1080.292969 216.457031 1091.90625 217.753906 1096.832031 223.5 C 1097.144531 227.210938 1096.152344 229.1875 1096.898438 232.179688 C 1094.679688 236.046875 1092.230469 239.769531 1087.917969 242.289062 C 1090.949219 246.042969 1092.726562 248.871094 1092.875 252.757812 C 1091.964844 253.507812 1087.746094 254.441406 1090.800781 255.0625 C 1089.359375 255.640625 1087.871094 256.195312 1086.636719 256.921875 C 1086.992188 258.113281 1090.492188 258.429688 1088.746094 259.636719 C 1086.332031 260.023438 1086.066406 258.980469 1083.867188 259.214844 C 1084.402344 261.898438 1089.515625 263.015625 1090.890625 266.472656 C 1092.585938 270.730469 1089.417969 275.832031 1089.601562 281.097656 C 1082.789062 281.144531 1085.207031 287.859375 1075.714844 287.132812 C 1082.882812 290.058594 1093.347656 293.066406 1102.234375 293.332031 C 1103.832031 295.183594 1106.125 300.085938 1102.292969 301.550781 C 1103.105469 302.382812 1104.121094 303.085938 1105.097656 303.816406 C 1103.640625 304.949219 1097.988281 303.878906 1100.238281 306.136719 C 1093.28125 307.269531 1084.28125 305.632812 1079.371094 309.484375 C 1079.453125 310.652344 1081.972656 310.203125 1082.863281 310.832031 C 1083.085938 311.992188 1081.574219 313.503906 1082.195312 314.488281 C 1086.101562 315.4375 1084.164062 316.214844 1087.78125 316.273438 C 1086.925781 317.539062 1085.601562 318.503906 1082.921875 318.589844 C 1085.050781 319.769531 1088.960938 319.761719 1089.90625 321.738281 C 1081.96875 323.914062 1078.503906 322.425781 1069.714844 322.804688 C 1082.316406 325.117188 1093.585938 328.3125 1103.914062 332.144531 C 1104.046875 334.136719 1104.179688 336.132812 1102.546875 335.808594 C 1103.863281 337.238281 1104.898438 336.179688 1106.023438 335.328125 C 1106.785156 339.257812 1107.175781 341.667969 1110.964844 343.96875 C 1109.589844 347.21875 1104.734375 345.9375 1100.539062 346.78125 C 1101.160156 348.976562 1102.109375 350.945312 1105.445312 351.316406 C 1103.261719 355.476562 1091.417969 354.898438 1087.375 356.46875 C 1088.972656 359.195312 1093.332031 356.9375 1097.128906 356.394531 C 1096.175781 358.253906 1098.652344 357.824219 1098.542969 359.128906 C 1086.148438 359.585938 1085.039062 363.328125 1072.089844 362.058594 C 1071.75 373.953125 1062.609375 380.179688 1057.667969 389.109375 C 1051.613281 388 1048.949219 390.015625 1045.84375 391.941406 C 1045.53125 393.214844 1049.632812 391.546875 1049.328125 392.820312 C 1043.890625 394.421875 1036.238281 394.167969 1028.445312 394.804688 C 1021.171875 395.40625 1015.03125 395.421875 1010.332031 393.578125 C 974.476562 398.109375 946.371094 394.53125 908.648438 396.605469 C 908.027344 395.144531 910.945312 395.96875 910.722656 394.769531 C 899.125 394.71875 878.808594 398.136719 867.539062 395.539062 C 865.296875 395.96875 866.554688 394.058594 865.4375 393.726562 C 856.632812 394 848.707031 396.9375 843.148438 393.886719 C 830.621094 393.191406 816.734375 396.9375 807.617188 394.152344 C 771.011719 394.785156 741.519531 396.433594 710.78125 393.042969 C 693.273438 392.199219 678.984375 393.414062 661.316406 392.496094 C 663.796875 390.3125 669.625 390.28125 674.53125 389.660156 C 668.09375 388.902344 657.601562 388.753906 648.757812 389.394531 C 619.191406 391.523438 588.378906 390.828125 558.207031 389.605469 C 556.8125 388.554688 558.375 389.097656 558.894531 388.230469 C 552.960938 386.765625 546.734375 388.808594 541.484375 389.273438 C 540.171875 388.414062 541.394531 388.125 541.46875 386.984375 C 535.511719 386.402344 537.265625 388.363281 533.816406 388.867188 C 530.574219 389.296875 534.769531 387.683594 532.417969 387.503906 C 530.929688 387.304688 531.09375 388.171875 531.035156 388.890625 C 523.050781 388.257812 516.664062 387.851562 507.347656 388.609375 C 504.476562 388.84375 507.882812 387.460938 505.941406 386.792969 C 494.230469 386.628906 477.609375 389.289062 464.855469 388.007812 C 458.800781 387.40625 454.96875 388.082031 448.132812 388.140625 C 442.285156 388.183594 436.566406 385.785156 430.003906 385.074219 C 424.609375 384.496094 416.574219 386.371094 408.410156 385.230469 C 408.558594 384.570312 410.484375 385.058594 410.484375 384.304688 C 386.789062 385.128906 357.710938 385.238281 335.273438 387.601562 C 308.207031 385.851562 276.894531 390.28125 252.402344 390.035156 C 252.992188 389.347656 254.148438 389.039062 255.878906 389.097656 C 231.925781 387.265625 195.144531 386.949219 164.621094 387.949219 C 161.730469 388.207031 161.65625 390.273438 157.671875 389.820312 C 155.824219 392.445312 150.222656 392.628906 146.550781 393.5625 C 145.910156 393.722656 143.828125 394.933594 143.074219 394.953125 C 131.953125 395.429688 135.269531 386.984375 129.050781 382.726562 C 125.765625 384.066406 122.363281 384.59375 119.300781 382.800781 C 119.53125 379.914062 124.621094 380.179688 126.234375 378.1875 C 125.339844 377.542969 122.320312 376.722656 122.058594 378.21875 C 120.476562 377.300781 120.507812 375.839844 122.039062 375.019531 C 119.566406 374.789062 120.34375 376.648438 117.871094 376.417969 C 117.570312 375.464844 118.339844 375.203125 118.558594 374.582031 C 116.332031 374.332031 116.40625 375.457031 115.066406 374.613281 C 114.882812 371.761719 115.238281 369.265625 117.8125 368.199219 C 103.804688 365.289062 92.457031 357.875 80.757812 352.039062 C 81.066406 349.210938 84.605469 348.464844 84.894531 345.621094 C 93.425781 343.9375 98.914062 343.101562 109.246094 342.695312 C 110.902344 341.792969 107.957031 340.148438 109.917969 339.039062 C 112.847656 339.464844 116.941406 339.332031 118.96875 337.140625 C 116.40625 336.488281 115.148438 337.007812 111.996094 336.28125 C 112.457031 335.214844 114.304688 335.039062 114.765625 333.972656 C 110.339844 331.359375 117.382812 327.285156 114.691406 324.382812 C 115.875 323.324219 118.621094 325.101562 120.964844 324.796875 C 117.304688 323.390625 124.703125 323.980469 125.828125 322.929688 C 125.53125 321.984375 120.011719 323.960938 121.644531 322.050781 C 114.675781 322.769531 116.726562 321.753906 111.199219 322.132812 C 112.042969 315.183594 122.757812 312.496094 134.09375 309.171875 C 132.5 307.789062 129.867188 305.144531 131.257812 303.253906 C 130.3125 302.382812 127.359375 304.039062 125.695312 304.203125 C 125.695312 302.839844 127.492188 302.640625 127.757812 301.457031 C 126.109375 300.351562 126.464844 302.144531 124.28125 301.929688 C 126.328125 299.242188 130.109375 300.109375 133.316406 298.671875 C 130.148438 296.9375 126.839844 298.597656 122.867188 298.753906 C 123.164062 298.027344 125.050781 298.339844 124.25 296.917969 C 122.269531 296.851562 122.898438 298.472656 120.078125 297.855469 C 119.730469 296.425781 122.207031 296.804688 121.453125 295.109375 C 117.863281 295.644531 113.484375 296.078125 110.308594 295.644531 C 110.296875 293.96875 112.738281 293.878906 113.773438 292.878906 C 111.464844 292.140625 109.84375 293.355469 106.816406 293.382812 C 106.527344 291.378906 106.515625 289.265625 111.65625 288.785156 C 111.425781 287.726562 111.761719 287.03125 112.335938 286.488281 C 109.414062 285.207031 108.136719 285.992188 101.882812 285.652344 C 100.773438 283.609375 104.769531 282.078125 103.933594 280.617188 C 102.015625 277.285156 98.128906 277.914062 92.742188 277.960938 C 94.980469 276.113281 93.933594 274.929688 96.191406 273.367188 C 92.714844 271.996094 95.28125 270.308594 95.453125 267.4375 C 96.703125 267.371094 96.925781 267.984375 98.242188 267.875 C 99.824219 262.984375 112.011719 264.941406 113.507812 260 C 110.289062 259.089844 112.277344 254.707031 109.28125 253.632812 C 113.167969 247.65625 109.667969 236.910156 122.386719 236.636719 C 121.644531 234.675781 119.375 233.75 115.402344 233.949219 C 116.039062 231.855469 113.914062 231.574219 111.214844 231.691406 C 112.324219 229.367188 112.746094 229.203125 109.792969 228.054688 C 112.953125 224.035156 112.128906 219.984375 115.261719 214.3125 C 144.042969 215.902344 183.972656 215.820312 209.328125 217.265625 C 210.003906 217.25 209.863281 216.703125 210.019531 216.347656 C 215.539062 218.871094 224.070312 217.398438 229.515625 215.746094 C 229.152344 216.117188 228.796875 216.496094 228.835938 217.125 C 231.875 217.421875 232.75 216.324219 235.789062 216.621094 C 241.785156 217.585938 263.980469 214.71875 278.261719 214.480469 C 293.933594 214.214844 310.25 212.082031 317.9375 210.074219 C 320.433594 213.984375 328.402344 212.476562 336.761719 212.214844 C 338.878906 212.03125 337.953125 213.875 339.558594 214.023438 C 343.828125 211.984375 356.238281 215.117188 361.144531 212.496094 C 361.558594 211.304688 360.855469 210.851562 359.050781 211.132812 C 363.984375 209.519531 370.179688 211.296875 375.757812 210.097656 C 375.300781 209.636719 374.152344 209.636719 374.359375 208.734375 C 383.882812 209.246094 393.996094 210.75 400.160156 213.113281 C 403.550781 212.171875 405.644531 213.585938 408.53125 213.964844 C 416.808594 215.042969 429.316406 212.941406 439.171875 212.824219 C 469.546875 212.445312 499.386719 214.949219 527.644531 213.082031 C 528.105469 213.542969 529.25 213.542969 529.042969 214.445312 C 551.101562 214.089844 568.675781 212.445312 590.328125 212.621094 C 590.535156 211.414062 588.867188 211.453125 587.53125 211.269531 C 593.070312 210.777344 598.289062 212.480469 602.867188 213.4375 C 607.691406 210.238281 611.4375 213.875 618.191406 213.785156 C 618.59375 214.792969 616.875 214.445312 616.808594 215.171875 C 639.472656 216.738281 659.734375 209.632812 682.96875 213.304688 C 683.863281 212.519531 685.253906 212.050781 687.140625 211.910156 C 686.488281 214.828125 680.039062 213.992188 676.714844 215.175781 C 687.390625 215.25 700.273438 213.753906 712.941406 216.28125 C 717.34375 212 729.960938 214.601562 740.082031 213.339844 C 740.285156 214.082031 739.433594 214.132812 739.394531 214.71875 C 742.679688 214.675781 744.6875 215.488281 747.765625 215.570312 C 747.808594 214.015625 745.175781 214.238281 742.878906 214.238281 C 748.4375 211.972656 756.238281 215.867188 758.878906 211.371094 C 762.652344 211.90625 765.183594 211.90625 767.230469 210.394531 C 767.433594 211.132812 766.582031 211.1875 766.542969 211.777344 C 785.828125 214.3125 807.773438 214 832.730469 214.03125 C 832.40625 212.261719 827.929688 213.257812 826.449219 212.253906 C 850.105469 209.972656 876.789062 216.726562 900.976562 211.695312 C 897.519531 210.273438 889.699219 210.550781 887.027344 209.980469 C 885.585938 209.71875 882.464844 210.578125 882.160156 209.558594 C 890.105469 209.734375 892.84375 208.378906 899.570312 208.511719 C 900.644531 207.996094 901.007812 207.015625 903.042969 207.121094 C 901.53125 208.082031 903.398438 208.425781 903.0625 209.859375 C 906.074219 210.289062 906.917969 209.320312 908.628906 208.90625 C 912.453125 210.914062 915.984375 210.113281 920.472656 208.816406 C 944.648438 213.253906 975.527344 209.34375 1002.683594 210.941406 C 996.125 213.199219 986.382812 210.925781 980.410156 213.851562 C 981.617188 215.035156 987.320312 213.230469 986.003906 216.097656 C 988.984375 216.355469 988.832031 214.585938 991.566406 214.6875 C 992.464844 215.28125 992.472656 216.371094 991.582031 216.976562 C 997.242188 215.867188 1007.734375 216.074219 1014.582031 218.636719 C 1012.492188 218.652344 1010.40625 218.664062 1008.304688 218.679688 C 1022.785156 219.777344 1045.148438 222.421875 1061.972656 221.9375 C 1063.492188 224.269531 1064.925781 222.003906 1070.363281 223.234375 Z M 569.460938 215.519531 C 572.910156 215.273438 576.554688 215.816406 573.648438 217.308594 C 576.480469 217.472656 577.207031 216.28125 579.207031 215.902344 C 576.261719 215.894531 577.546875 214.875 578.496094 214.082031 C 575.808594 215.753906 569.875 212.503906 569.460938 215.519531 Z M 907.976562 212.554688 C 907.105469 212.460938 906.546875 211.851562 906.585938 213.015625 C 910.152344 212.933594 913.546875 212.519531 915.644531 212.949219 C 915.429688 211.007812 909.605469 211.339844 907.976562 212.554688 Z M 715.796875 224.019531 C 715.132812 225.691406 719.699219 224.96875 719.285156 223.996094 C 717.550781 223.960938 717.125 223.160156 715.796875 224.019531 Z M 720.683594 224.902344 C 723.019531 224.589844 727.15625 225.441406 728.339844 224.390625 C 724.625 224.167969 723.074219 222.910156 720.683594 224.902344 Z M 617.054688 246.679688 C 619.042969 248.050781 622.980469 246.339844 623.335938 248.003906 C 625.40625 248.019531 626.863281 246.636719 628.210938 247.515625 C 628.203125 246.910156 628.203125 246.300781 628.195312 245.6875 C 624.742188 246.183594 619.992188 245.84375 617.054688 246.679688 Z M 943.226562 268.933594 C 945.3125 268.464844 948.289062 268.554688 948.785156 267.066406 C 946.054688 267.117188 942.664062 266.753906 943.226562 268.933594 Z M 958.574219 272.011719 C 968.214844 271.109375 954.402344 270.695312 953.003906 272.058594 C 955.320312 271.953125 957.132812 272.144531 958.574219 272.011719 Z M 326.980469 301.804688 C 327.527344 302.175781 331.242188 302.253906 331.144531 300.863281 C 329.304688 300.886719 327.046875 300.640625 326.980469 301.804688 Z M 534.75 326.757812 C 535.636719 325.0625 530.605469 324.976562 529.867188 325.886719 C 532.597656 325.433594 531.640625 327.457031 534.75 326.757812 Z M 545.894531 326.671875 C 552.085938 327.460938 557.25 326.65625 564.703125 326.988281 C 560.890625 326.34375 549.746094 324.921875 545.894531 326.671875 Z M 582.121094 326.871094 C 581.027344 326.832031 579.707031 326.953125 580.027344 325.96875 C 575.808594 326.9375 569.402344 325.898438 566.09375 326.070312 C 573.75 327.582031 577.390625 327.914062 582.121094 326.871094 Z M 508.992188 329.234375 C 504.257812 329.972656 497.574219 328.054688 495.761719 329.789062 C 503.929688 331.011719 521.984375 331.5 531.285156 329.523438 C 523.925781 329.054688 519.417969 327.972656 512.476562 328.75 C 517.886719 330.410156 507.636719 328.171875 507.601562 328.328125 C 508.378906 328.425781 508.679688 328.832031 508.992188 329.234375 Z M 587.011719 328.65625 C 588.640625 328.648438 590.253906 328.632812 591.878906 328.617188 C 592.160156 326.78125 587.152344 327.898438 587.011719 328.65625 Z M 533.378906 329.507812 C 532.953125 329.535156 532.558594 329.589844 532.683594 329.964844 C 535.742188 330.1875 545.226562 329.589844 537.554688 329.476562 C 536.101562 328.484375 535.304688 329.898438 534.070312 329.046875 C 534.023438 328.765625 533.957031 328.507812 533.367188 328.589844 C 533.371094 328.898438 533.371094 329.203125 533.378906 329.507812 Z M 493.695312 332.542969 C 492.996094 333.460938 491.109375 333.609375 490.226562 334.394531 C 505.386719 335.105469 531.265625 334.484375 548.734375 333.957031 C 533.269531 331.5 511.996094 334.105469 493.695312 332.542969 Z M 993.988281 350.757812 C 1001.144531 353.65625 1011.53125 354.722656 1020.476562 354.226562 C 1011.347656 353.816406 1001.3125 349.335938 993.988281 350.757812 Z M 963.367188 355.558594 C 965.609375 356.929688 971.523438 356.640625 973.816406 355.484375 C 973.632812 356.527344 973.996094 357.195312 975.222656 357.296875 C 976.421875 356.359375 974.699219 356.410156 975.902344 355.460938 C 972.046875 353.667969 967.964844 354.59375 963.367188 355.558594 Z M 950.835938 356.105469 C 953.625 355.9375 954.703125 356.890625 957.804688 356.511719 C 957.566406 354.179688 950.878906 355.160156 950.835938 356.105469 Z M 1011.464844 359.773438 C 1013.738281 360.15625 1015.800781 360.074219 1019.828125 360.164062 C 1019.753906 358.0625 1013.796875 359.378906 1011.464844 359.773438 Z M 390.957031 380.800781 C 389.230469 381.585938 384.191406 379.980469 381.898438 381.328125 C 383.453125 382.707031 389.933594 382.445312 390.957031 380.800781 Z M 693.992188 383.136719 C 691.441406 383.492188 690.117188 382.039062 688.421875 383.179688 C 691.011719 385.246094 696.8125 384.601562 701.660156 384.445312 C 709.480469 384.203125 716.863281 383.046875 724.640625 383.824219 C 717.234375 381.320312 699.777344 382.714844 693.992188 383.136719 Z M 735.785156 383.277344 C 738.847656 383.832031 746.039062 383.320312 750.414062 382.253906 C 745.300781 382.800781 736.503906 380.542969 735.785156 383.277344 Z M 778.273438 382.046875 C 778.125 384.074219 771.464844 381.898438 771.324219 383.925781 C 774.808594 384.652344 777.296875 384.023438 780.382812 383.410156 C 780.722656 384.609375 780.9375 384.941406 782.488281 386.125 C 796.976562 382.113281 811.03125 388.511719 824.96875 384.445312 C 809.617188 382.460938 793.589844 384.675781 778.273438 382.046875 Z M 650.113281 384.824219 C 646.570312 384.832031 642.070312 382.882812 640.375 385.816406 C 652.910156 386.550781 665.363281 386.199219 677.972656 383.710938 C 668.921875 383.667969 658.875 384.800781 650.113281 384.824219 Z M 650.113281 384.824219 " fill-opacity="1" fill-rule="evenodd"/></g><g clip-path="url(#20973af1b6)"><path fill="#1c2826" d="M 244.308594 221.730469 C 243.378906 221.683594 242.429688 222.152344 241.289062 223.066406 C 235.476562 227.722656 234.488281 238.710938 238.507812 254.164062 C 239.734375 258.882812 243.859375 267.777344 244.824219 267.777344 C 245.078125 267.777344 245.132812 267.300781 244.941406 266.71875 C 244.46875 265.285156 244.171875 259.296875 244.527344 258.273438 C 244.683594 257.816406 245.109375 257.570312 245.453125 257.730469 C 245.800781 257.886719 245.945312 258.289062 245.769531 258.625 C 245.597656 258.960938 245.835938 259.628906 246.324219 260.105469 C 246.808594 260.582031 247.21875 261.777344 247.230469 262.773438 C 247.246094 264.1875 247.460938 264.527344 248.199219 264.316406 C 248.726562 264.164062 249.144531 264.300781 249.144531 264.621094 C 249.144531 264.941406 249.855469 265.605469 250.726562 266.089844 C 251.59375 266.574219 252.304688 267.25 252.304688 267.601562 C 252.304688 268.476562 253.234375 268.410156 254.277344 267.453125 C 254.867188 266.914062 254.894531 266.773438 254.359375 267.015625 C 253.921875 267.207031 253.566406 267.25 253.566406 267.117188 C 253.566406 266.460938 255.308594 264.167969 256.570312 263.15625 C 257.351562 262.527344 257.988281 261.851562 257.988281 261.660156 C 257.988281 261.136719 254.558594 260.753906 254.320312 261.25 C 254.203125 261.484375 253.839844 261.675781 253.527344 261.675781 C 252.703125 261.675781 254.210938 259.234375 255.621094 258.285156 C 256.730469 257.542969 257.191406 256.730469 257.320312 255.25 C 257.34375 254.945312 257.773438 254.398438 258.265625 254.03125 C 258.757812 253.667969 259.285156 252.40625 259.449219 251.230469 C 259.71875 249.324219 259.597656 249.054688 258.226562 248.589844 C 257.011719 248.179688 256.625 248.203125 256.351562 248.738281 C 255.660156 250.078125 254.078125 248.9375 254.339844 247.285156 C 254.496094 246.28125 254.320312 245.714844 253.84375 245.714844 C 252.710938 245.714844 250.921875 241.367188 251.871094 240.917969 C 252.375 240.679688 252.257812 240.558594 251.515625 240.550781 C 250.90625 240.546875 250.410156 240.234375 250.410156 239.847656 C 250.410156 238.910156 252.703125 238.945312 253.191406 239.890625 C 253.40625 240.304688 253.453125 240.800781 253.292969 240.992188 C 253.132812 241.183594 253.417969 241.328125 253.921875 241.328125 C 254.429688 241.328125 254.832031 241.164062 254.832031 240.949219 C 254.832031 239.507812 259.195312 242.460938 259.234375 243.925781 C 259.246094 244.367188 259.753906 244.9375 260.359375 245.1875 C 260.964844 245.441406 261.257812 245.792969 261.011719 245.980469 C 260.34375 246.472656 258.621094 245.273438 258.621094 244.308594 C 258.621094 243.320312 256.375 241.125 255.800781 241.550781 C 255.578125 241.714844 256.136719 242.648438 257.023438 243.617188 C 257.910156 244.589844 258.621094 245.667969 258.621094 246.023438 C 258.621094 246.382812 259.347656 246.886719 260.242188 247.136719 C 261.484375 247.492188 261.773438 247.820312 261.464844 248.546875 C 261.242188 249.066406 260.980469 250.472656 260.871094 251.6875 C 260.761719 252.898438 260.398438 253.964844 260.0625 254.046875 C 259.191406 254.261719 259.882812 256.539062 260.910156 256.835938 C 261.386719 256.96875 261.65625 257.222656 261.503906 257.40625 C 261.351562 257.589844 261.609375 258.566406 262.078125 259.578125 C 262.921875 261.40625 262.734375 264.328125 261.722656 265.152344 C 261.027344 265.71875 261.789062 272.609375 262.589844 273 C 263.324219 273.355469 262.566406 274.472656 261.820312 274.128906 C 261.535156 273.996094 261.339844 274.238281 261.386719 274.671875 C 261.445312 275.207031 260.78125 275.570312 259.3125 275.800781 C 258.128906 275.988281 256.921875 276.453125 256.628906 276.84375 C 256.316406 277.257812 255.507812 277.472656 254.671875 277.355469 C 253.890625 277.246094 253.609375 277.277344 254.042969 277.429688 C 254.582031 277.621094 254.707031 278.300781 254.4375 279.554688 C 254.117188 281.039062 254.226562 281.390625 255.027344 281.390625 C 255.574219 281.390625 256.445312 280.941406 256.964844 280.390625 C 257.519531 279.800781 258.3125 279.496094 258.878906 279.660156 C 259.492188 279.832031 259.710938 279.710938 259.511719 279.320312 C 259.335938 278.988281 260.195312 278.160156 261.40625 277.472656 C 263.835938 276.097656 264.890625 275.839844 263.675781 276.929688 C 263.035156 277.503906 263.078125 277.632812 263.851562 277.632812 C 264.375 277.632812 264.953125 277.210938 265.136719 276.695312 C 265.316406 276.179688 265.195312 275.875 264.878906 276.019531 C 263.699219 276.5625 264.375 275.464844 266.203125 273.878906 C 267.242188 272.976562 268.097656 272.078125 268.097656 271.882812 C 268.101562 271.191406 269.734375 271.542969 270.800781 272.472656 C 272.195312 273.679688 272.167969 273.878906 270.625 273.878906 C 269.929688 273.878906 269.359375 274.089844 269.359375 274.347656 C 269.359375 274.605469 269.929688 274.816406 270.625 274.816406 C 272.765625 274.816406 272.015625 275.75 269.835938 275.800781 C 267.890625 275.84375 267.863281 275.871094 269.359375 276.226562 C 270.230469 276.433594 270.566406 276.625 270.109375 276.652344 C 269.65625 276.675781 269.460938 276.90625 269.675781 277.164062 C 269.898438 277.429688 269.375 277.632812 268.472656 277.632812 C 267.324219 277.632812 266.972656 277.828125 267.230469 278.324219 C 267.496094 278.835938 266.933594 279.09375 265.019531 279.320312 C 263.601562 279.488281 262.113281 279.921875 261.722656 280.273438 C 261.328125 280.625 260.761719 280.796875 260.457031 280.65625 C 260.152344 280.515625 260.074219 280.722656 260.28125 281.125 C 260.507812 281.566406 260.308594 281.859375 259.785156 281.859375 C 259.3125 281.859375 258.363281 282.425781 257.675781 283.121094 C 256.984375 283.816406 255.914062 284.707031 255.304688 285.101562 C 254.132812 285.863281 253.765625 286.808594 254.832031 286.316406 C 255.605469 285.960938 255.636719 286.558594 254.890625 287.433594 C 254.585938 287.789062 254.050781 287.949219 253.6875 287.785156 C 253.324219 287.617188 252.832031 287.71875 252.582031 288.019531 C 252.296875 288.363281 252.382812 288.449219 252.835938 288.238281 C 254.460938 287.492188 253.441406 288.765625 251.296875 290.144531 C 250.039062 290.957031 249.117188 291.847656 249.246094 292.125 C 249.371094 292.402344 250.777344 291.6875 252.382812 290.542969 C 253.988281 289.398438 255.46875 288.597656 255.679688 288.753906 C 255.890625 288.910156 256.511719 288.769531 257.042969 288.445312 C 257.691406 288.042969 257.988281 288.019531 257.988281 288.371094 C 257.988281 288.660156 257.421875 289.148438 256.726562 289.472656 C 255.300781 290.132812 254.996094 291.355469 256.351562 290.96875 C 259.441406 290.085938 256.375 293.722656 252.679688 295.324219 C 250.394531 296.316406 248.214844 297.03125 247.726562 296.953125 C 247.605469 296.933594 247.492188 296.957031 247.410156 297.011719 C 247.316406 297.230469 247.242188 297.453125 247.132812 297.6875 L 244.722656 299.503906 C 244.828125 300.984375 246.6875 303.445312 247.746094 303.449219 C 248.1875 303.453125 248.726562 304.074219 248.929688 304.828125 C 248.949219 304.90625 248.960938 304.976562 248.988281 305.050781 C 252.152344 306.394531 252.824219 308.039062 253.210938 310.636719 C 253.492188 310.785156 254.039062 310.773438 255.046875 310.652344 C 256.945312 310.425781 257.246094 310.542969 258.167969 311.957031 C 259.007812 313.246094 259.261719 313.378906 259.609375 312.707031 C 259.839844 312.253906 259.746094 311.632812 259.390625 311.3125 C 259.035156 310.992188 258.53125 309.917969 258.285156 308.9375 C 257.984375 307.734375 257.289062 306.894531 256.171875 306.382812 C 255.261719 305.964844 253.867188 305.148438 253.074219 304.550781 C 251.707031 303.519531 251.695312 303.40625 252.679688 302.292969 C 253.914062 300.890625 254.335938 301.019531 255.757812 303.246094 C 256.351562 304.171875 256.996094 304.820312 257.179688 304.683594 C 258.359375 303.804688 261.226562 308.3125 261.109375 310.859375 C 260.90625 315.226562 260.445312 316.523438 259.175781 316.34375 C 258.402344 316.234375 258.125 316.363281 258.40625 316.695312 C 258.6875 317.035156 258.46875 317.117188 257.8125 316.929688 C 257.097656 316.726562 256.894531 316.847656 257.140625 317.328125 C 257.335938 317.699219 257.191406 318 256.804688 318 C 256.421875 318 256.09375 317.796875 256.09375 317.546875 C 256.09375 317.296875 255.703125 317.207031 255.226562 317.339844 C 254.75 317.476562 254.191406 317.257812 253.984375 316.855469 C 253.769531 316.441406 253.941406 316.113281 254.378906 316.109375 C 254.90625 316.105469 254.878906 315.980469 254.277344 315.699219 C 253.800781 315.472656 253.601562 315.050781 253.84375 314.757812 C 254.085938 314.46875 254.566406 314.347656 254.890625 314.496094 C 255.214844 314.644531 255.464844 314.550781 255.464844 314.277344 C 255.464844 314.003906 255.035156 313.777344 254.515625 313.777344 C 253.996094 313.777344 253.566406 313.988281 253.566406 314.246094 C 253.566406 314.503906 253.105469 314.714844 252.542969 314.714844 C 252.191406 314.714844 252.003906 314.671875 251.929688 314.582031 C 251.925781 314.585938 251.914062 314.582031 251.910156 314.582031 C 249.644531 316.042969 251.054688 319.011719 252.246094 321.214844 C 253.164062 324.433594 252.910156 327.316406 252.9375 327.300781 C 253.027344 327.570312 253.457031 338.40625 257.398438 345.945312 C 258.816406 348.65625 259.683594 350.839844 260.21875 352.589844 C 260.578125 352.648438 260.566406 352.445312 260.359375 351.855469 C 260.109375 351.148438 260.304688 350.839844 261.050781 350.8125 C 261.730469 350.789062 261.808594 350.707031 261.285156 350.550781 C 260.84375 350.417969 260.0625 349.554688 259.550781 348.644531 C 258.449219 346.683594 258.417969 346.484375 259.253906 346.867188 C 259.980469 347.203125 260.125 346.488281 259.429688 345.972656 C 258.816406 345.519531 258.796875 342.4375 259.410156 342.71875 C 259.671875 342.835938 259.886719 343.199219 259.886719 343.523438 C 259.886719 343.847656 260.484375 345.023438 261.207031 346.136719 C 261.933594 347.25 262.390625 348.523438 262.234375 348.964844 C 262.0625 349.453125 262.316406 349.757812 262.886719 349.757812 C 263.65625 349.757812 263.789062 349.019531 263.578125 345.429688 C 263.375 342.027344 263.488281 341.15625 264.128906 341.339844 C 264.578125 341.464844 264.9375 341.332031 264.9375 341.046875 C 264.9375 340.757812 264.601562 340.585938 264.1875 340.648438 C 263.773438 340.714844 263.328125 340.40625 263.203125 339.972656 C 262.851562 338.789062 264.277344 335.296875 264.976562 335.617188 C 265.316406 335.773438 265.425781 336.113281 265.214844 336.367188 C 264.796875 336.867188 266.027344 338.183594 266.914062 338.183594 C 267.21875 338.183594 267.464844 337.761719 267.464844 337.246094 C 267.464844 336.730469 267.21875 336.308594 266.914062 336.308594 C 266.605469 336.308594 266.195312 335.867188 266.003906 335.324219 C 265.8125 334.78125 265.410156 334.445312 265.097656 334.589844 C 264.785156 334.734375 264.5 334.609375 264.484375 334.296875 C 264.46875 333.984375 264.261719 333.355469 264.011719 332.902344 C 263.757812 332.453125 263.8125 332.082031 264.148438 332.082031 C 264.484375 332.082031 264.632812 331.550781 264.464844 330.894531 C 264.296875 330.238281 264.425781 329.761719 264.742188 329.839844 C 265.058594 329.914062 266.160156 329.339844 267.1875 328.578125 C 269.046875 327.195312 269.054688 327.203125 269.261719 328.269531 C 269.386719 328.90625 269.796875 329.238281 270.269531 329.105469 C 270.707031 328.980469 271.449219 329.285156 271.925781 329.78125 C 272.96875 330.855469 273.78125 330.9375 273.78125 329.96875 C 273.78125 329.582031 274.039062 329.265625 274.355469 329.265625 C 274.667969 329.265625 274.792969 329.6875 274.613281 330.207031 C 274.359375 330.921875 274.59375 331.144531 275.597656 331.144531 C 276.511719 331.144531 276.796875 331.359375 276.546875 331.847656 C 275.929688 333.039062 277.402344 332.628906 279.507812 331.027344 C 280.609375 330.1875 281.347656 329.753906 281.125 330.058594 C 280.90625 330.363281 281.003906 330.746094 281.363281 330.910156 C 281.722656 331.074219 281.839844 331.421875 281.621094 331.6875 C 281.378906 331.976562 281.753906 331.964844 282.566406 331.644531 C 283.3125 331.347656 284.222656 331.230469 284.582031 331.394531 C 284.9375 331.558594 284.640625 330.882812 283.929688 329.898438 C 282.339844 327.691406 282.167969 326.523438 283.574219 327.390625 C 284.09375 327.710938 284.519531 327.816406 284.519531 327.625 C 284.519531 327.429688 284.949219 327.535156 285.46875 327.859375 C 286.253906 328.34375 286.417969 328.285156 286.417969 327.535156 C 286.417969 327.039062 286.769531 326.378906 287.1875 326.070312 C 287.777344 325.628906 287.710938 325.511719 286.929688 325.511719 C 286.375 325.511719 285.761719 325.210938 285.566406 324.835938 C 285.332031 324.382812 285.527344 324.238281 286.140625 324.410156 C 286.644531 324.554688 287.046875 324.476562 287.046875 324.234375 C 287.046875 323.992188 287.472656 323.796875 287.996094 323.796875 C 288.515625 323.796875 288.941406 323.960938 288.941406 324.175781 C 288.941406 324.390625 288.667969 324.574219 288.332031 324.574219 C 287.496094 324.574219 288.320312 326.082031 289.535156 326.789062 C 290.421875 327.300781 290.414062 327.359375 289.457031 327.375 C 288.492188 327.386719 288.480469 327.515625 289.296875 328.679688 C 290.167969 329.917969 290.144531 329.980469 288.546875 330.207031 C 286.953125 330.429688 286.988281 330.472656 289.535156 331.304688 C 292.0625 332.132812 292.238281 332.132812 293.007812 331.347656 C 293.601562 330.746094 293.925781 330.683594 294.273438 331.101562 C 295.082031 332.070312 295.167969 334.179688 294.410156 334.589844 C 293.980469 334.824219 294.285156 334.882812 295.160156 334.738281 C 296.253906 334.558594 296.542969 334.664062 296.285156 335.164062 C 296.097656 335.53125 296.207031 335.835938 296.542969 335.835938 C 296.878906 335.835938 297.164062 336.207031 297.15625 336.660156 C 297.144531 337.335938 296.941406 337.285156 295.992188 336.367188 C 294.9375 335.351562 294.789062 335.335938 294.390625 336.101562 C 294.152344 336.5625 294.203125 337.050781 294.511719 337.203125 C 294.816406 337.351562 295.25 338.050781 295.476562 338.742188 C 295.792969 339.707031 295.636719 340.042969 294.785156 340.207031 C 293.792969 340.402344 293.804688 340.425781 294.863281 340.472656 C 295.683594 340.511719 295.945312 340.800781 295.734375 341.398438 C 295.542969 341.9375 295.777344 342.246094 296.347656 342.246094 C 296.898438 342.246094 297.132812 341.929688 296.957031 341.425781 C 296.757812 340.859375 297.136719 340.515625 298.160156 340.328125 C 299.148438 340.140625 299.527344 339.820312 299.285156 339.359375 C 298.902344 338.617188 299.574219 338.433594 300.628906 339.007812 C 301.316406 339.378906 301.523438 343.75 300.886719 344.519531 C 300.132812 345.4375 299.675781 347.574219 300.234375 347.574219 C 300.957031 347.574219 300.488281 351.183594 299.289062 354.964844 C 298.773438 356.582031 298.519531 358.101562 298.714844 358.339844 C 298.910156 358.574219 298.792969 358.910156 298.4375 359.074219 C 297.515625 359.496094 297.640625 360.535156 298.714844 361.332031 C 298.75 361.359375 298.78125 361.390625 298.8125 361.417969 C 298.976562 359.585938 299.957031 354.003906 305.878906 346.574219 C 312.789062 338.878906 311.195312 329.738281 313.519531 321.300781 C 314.25 319.230469 314.042969 317.988281 313.71875 314.113281 C 314.089844 309.625 312.878906 307.78125 315.910156 304.785156 C 317.828125 302.890625 317.152344 301.617188 317.585938 300.707031 L 317.328125 300.238281 L 315.949219 299.109375 C 315.089844 298.398438 313.859375 297.8125 313.203125 297.816406 C 312.222656 297.824219 312.164062 297.914062 312.925781 298.273438 C 313.4375 298.511719 313.671875 298.847656 313.441406 299.019531 C 313.207031 299.195312 312.257812 298.886719 311.328125 298.347656 C 310.402344 297.804688 309.421875 297.46875 309.136719 297.597656 C 308.855469 297.726562 308.449219 297.609375 308.230469 297.347656 C 308.011719 297.085938 307.359375 296.878906 306.789062 296.878906 C 305.960938 296.878906 305.898438 296.996094 306.53125 297.464844 C 306.964844 297.789062 307.53125 298.074219 307.773438 298.097656 C 308.019531 298.121094 308.921875 298.371094 309.789062 298.652344 L 311.367188 299.167969 L 309.769531 299.195312 C 308.132812 299.226562 302.996094 296.148438 303.75 295.589844 C 303.957031 295.433594 304.449219 295.539062 304.835938 295.824219 C 305.21875 296.109375 305.945312 296.21875 306.453125 296.074219 C 307.207031 295.855469 307.222656 295.738281 306.53125 295.414062 C 305.902344 295.117188 305.882812 295.007812 306.472656 295 C 307.585938 294.992188 307.46875 294.222656 306.292969 293.886719 C 305.734375 293.726562 305.480469 293.796875 305.703125 294.0625 C 306.179688 294.632812 304.738281 294.664062 303.550781 294.105469 C 303.070312 293.882812 302.859375 293.488281 303.078125 293.226562 C 303.292969 292.964844 302.476562 292.308594 301.261719 291.773438 C 300.046875 291.242188 299.050781 290.484375 299.050781 290.089844 C 299.050781 289.691406 298.695312 289.34375 298.261719 289.324219 C 297.667969 289.296875 297.679688 289.230469 298.300781 289.046875 C 298.753906 288.910156 299.679688 289.179688 300.351562 289.632812 C 301.949219 290.707031 302.042969 289.601562 300.472656 288.285156 C 299.402344 287.386719 299.414062 287.371094 300.707031 287.875 C 301.445312 288.160156 302.226562 288.269531 302.445312 288.109375 C 302.664062 287.945312 302.855469 288.214844 302.859375 288.710938 C 302.867188 289.382812 302.992188 289.441406 303.394531 288.972656 C 303.800781 288.496094 304.019531 288.582031 304.28125 289.324219 C 304.832031 290.894531 306.171875 290.535156 305.703125 288.945312 C 305.304688 287.59375 306.179688 286.558594 306.945312 287.476562 C 307.164062 287.738281 306.964844 287.972656 306.511719 287.992188 C 306.058594 288.007812 306.351562 288.21875 307.164062 288.460938 C 309.671875 289.207031 309.964844 288.425781 307.777344 286.816406 C 305.71875 285.304688 305.671875 285.300781 304.914062 286.273438 C 304.492188 286.816406 304.125 287.046875 304.082031 286.789062 C 304.042969 286.53125 303.9375 285.808594 303.847656 285.1875 C 303.757812 284.570312 303.144531 283.777344 302.503906 283.429688 C 301.433594 282.847656 301.503906 282.796875 303.332031 282.796875 C 304.785156 282.796875 305.238281 282.617188 304.992188 282.136719 C 304.6875 281.550781 304.230469 281.375 301.894531 280.949219 C 301.546875 280.886719 300.90625 280.617188 300.472656 280.347656 C 300.035156 280.082031 299.683594 280.027344 299.683594 280.214844 C 299.683594 280.40625 299.023438 280.234375 298.199219 279.835938 C 297.042969 279.269531 296.519531 279.226562 295.890625 279.660156 C 295.261719 280.089844 295.1875 280.085938 295.535156 279.628906 C 295.78125 279.304688 295.523438 278.695312 294.964844 278.28125 C 294.402344 277.863281 294.121094 277.394531 294.332031 277.238281 C 294.542969 277.082031 294.898438 277.164062 295.140625 277.414062 C 295.382812 277.664062 296.570312 277.933594 297.785156 278 C 299.003906 278.070312 300.324219 278.441406 300.707031 278.824219 C 301.09375 279.207031 301.734375 279.511719 302.128906 279.511719 C 302.527344 279.511719 302.839844 279.710938 302.839844 279.953125 C 302.839844 280.191406 303.4375 280.527344 304.164062 280.699219 C 304.890625 280.871094 305.882812 281.722656 306.375 282.59375 C 308.054688 285.578125 309.941406 283.476562 310.636719 277.824219 C 310.800781 276.507812 310.6875 275.132812 310.382812 274.773438 C 310 274.328125 309.816406 274.675781 309.808594 275.875 C 309.804688 276.84375 309.511719 277.632812 309.175781 277.632812 C 308.335938 277.632812 307.113281 275.84375 307.578125 275.289062 C 307.792969 275.03125 307.53125 274.949219 306.964844 275.113281 C 306.296875 275.300781 306.082031 275.734375 306.335938 276.402344 C 306.632812 277.199219 306.585938 277.253906 306.058594 276.695312 C 305.691406 276.308594 305.390625 276.160156 305.386719 276.375 C 305.382812 276.585938 304.925781 276.425781 304.378906 276.019531 C 303.835938 275.617188 303.019531 275.289062 302.5625 275.289062 C 301.609375 275.289062 299.683594 273.304688 299.683594 272.308594 C 299.683594 271.941406 300.167969 271.492188 300.746094 271.328125 C 301.550781 271.097656 301.625 270.910156 301.0625 270.492188 C 300.660156 270.191406 300.316406 269.296875 300.3125 268.511719 C 300.3125 267.722656 299.863281 266.445312 299.328125 265.679688 C 298.789062 264.914062 298.453125 263.539062 298.558594 262.628906 C 298.6875 261.496094 298.484375 261.007812 297.945312 261.089844 C 297.511719 261.152344 297.15625 260.890625 297.15625 260.503906 C 297.15625 259.699219 298.160156 259.550781 298.753906 260.265625 C 299.714844 261.421875 300.296875 260.019531 299.898438 257.539062 C 299.664062 256.070312 299.453125 253.761719 299.425781 252.40625 C 299.390625 250.648438 299.117188 249.941406 298.496094 249.941406 C 297.832031 249.941406 297.800781 249.792969 298.359375 249.296875 C 298.925781 248.789062 298.835938 248.574219 297.964844 248.328125 C 296.933594 248.035156 296.960938 247.945312 298.203125 247.210938 C 299.859375 246.234375 301.269531 244.308594 300.332031 244.308594 C 299.121094 244.308594 299.703125 243.613281 301.894531 242.429688 C 303.089844 241.785156 304.074219 241.019531 304.085938 240.730469 C 304.09375 240.4375 304.484375 239.960938 304.953125 239.671875 C 305.636719 239.25 305.816406 239.488281 305.859375 240.90625 C 305.890625 241.871094 306.09375 243.195312 306.296875 243.839844 C 306.496094 244.484375 306.46875 244.734375 306.253906 244.394531 C 305.761719 243.617188 304.152344 245.078125 304.125 246.332031 C 304.113281 246.800781 303.265625 248.429688 302.25 249.957031 C 300.410156 252.707031 300.421875 252.746094 301.457031 254.738281 C 302.566406 256.867188 303.722656 258.042969 304.300781 257.613281 C 304.925781 257.148438 306.949219 258.597656 307.027344 259.5625 C 307.066406 260.078125 307.335938 260.914062 307.617188 261.410156 C 308.015625 262.117188 307.910156 262.246094 307.144531 262.027344 C 306.605469 261.875 305.789062 261.988281 305.347656 262.292969 C 304.730469 262.714844 304.648438 262.714844 304.992188 262.261719 C 305.238281 261.941406 305.183594 261.675781 304.855469 261.675781 C 304.523438 261.675781 304.289062 262.179688 304.339844 262.804688 C 304.390625 263.429688 304.515625 263.878906 304.617188 263.804688 C 304.917969 263.582031 308.527344 266.074219 308.527344 266.5 C 308.527344 266.71875 308.242188 266.765625 307.894531 266.605469 C 307.546875 266.445312 307.261719 266.628906 307.261719 267.015625 C 307.261719 267.402344 307.546875 267.851562 307.894531 268.011719 C 308.242188 268.171875 308.527344 268.820312 308.527344 269.449219 C 308.527344 270.929688 309.546875 270.925781 310.046875 269.449219 C 310.257812 268.824219 310.777344 268.03125 311.210938 267.691406 C 311.644531 267.347656 312.410156 266.488281 312.90625 265.769531 C 313.46875 264.960938 314.167969 264.554688 314.722656 264.710938 C 315.402344 264.90625 315.519531 264.699219 315.238281 263.863281 C 314.976562 263.089844 315.257812 262.480469 316.125 261.894531 C 317.542969 260.941406 317.519531 260.867188 317.46875 265.546875 C 317.453125 266.773438 317.632812 267.777344 317.882812 267.777344 C 318.710938 267.777344 321.152344 262.441406 322.066406 258.625 C 324.074219 250.242188 324.328125 248.386719 324.316406 242.136719 C 324.304688 232.734375 322.277344 227.097656 317.941406 224.390625 C 314.914062 222.496094 313.039062 222.878906 311.074219 225.78125 C 308.941406 228.929688 305.796875 232.574219 305.210938 232.574219 C 304.949219 232.574219 304.734375 232.820312 304.734375 233.117188 C 304.734375 233.414062 303.363281 235.261719 301.675781 237.222656 C 299.988281 239.1875 298.214844 241.632812 297.746094 242.664062 C 297.277344 243.699219 296.679688 244.761719 296.425781 245.027344 C 295.8125 245.667969 294.644531 251.140625 294.667969 253.226562 C 294.695312 255.664062 290.671875 266.367188 289.734375 266.371094 C 289.296875 266.371094 288.941406 266.148438 288.941406 265.886719 C 288.941406 265.621094 288.273438 265.183594 287.441406 264.902344 C 286.613281 264.621094 285.621094 263.894531 285.25 263.289062 C 284.570312 262.175781 280.730469 260.34375 280.730469 261.132812 C 280.730469 261.367188 280.125 261.679688 279.386719 261.824219 C 278.242188 262.046875 278.117188 262.324219 278.460938 263.683594 C 278.824219 265.132812 278.632812 265.382812 276.488281 266.515625 L 274.136719 267.761719 L 273.308594 266.605469 C 272.855469 265.960938 272.230469 265.429688 271.925781 265.429688 C 271.058594 265.429688 269.871094 262.496094 270.605469 262.160156 C 270.972656 261.992188 270.214844 260.300781 268.75 258.054688 C 266.078125 253.964844 265.757812 253.214844 265.292969 249.898438 C 265.128906 248.714844 264.691406 247.175781 264.328125 246.464844 C 263.960938 245.753906 263.832031 244.96875 264.03125 244.734375 C 264.226562 244.496094 264.136719 244.308594 263.832031 244.308594 C 263.527344 244.308594 262.445312 242.988281 261.425781 241.375 C 260.40625 239.761719 259.355469 238.367188 259.09375 238.28125 C 258.835938 238.195312 258.621094 237.949219 258.621094 237.722656 C 258.621094 237.289062 256.875 235.28125 254.121094 232.574219 C 253.203125 231.671875 251.144531 229.003906 249.558594 226.648438 C 247.339844 223.339844 245.859375 221.820312 244.308594 221.734375 Z M 244.664062 232.148438 C 244.714844 232.160156 244.65625 232.332031 244.507812 232.675781 C 244.308594 233.132812 244.5625 233.65625 245.097656 233.878906 C 245.667969 234.113281 245.878906 234.589844 245.632812 235.066406 C 244.796875 236.683594 243.101562 235.902344 243.441406 234.054688 C 243.503906 233.703125 243.308594 233.535156 243.007812 233.671875 C 242.707031 233.8125 242.128906 233.523438 241.722656 233.042969 C 241.09375 232.292969 241.15625 232.175781 242.21875 232.234375 C 242.902344 232.273438 243.476562 232.523438 243.480469 232.792969 C 243.484375 233.058594 243.796875 232.960938 244.171875 232.570312 C 244.460938 232.273438 244.617188 232.132812 244.664062 232.148438 Z M 316.480469 235.082031 C 316.972656 235.082031 317.371094 235.351562 317.371094 235.695312 C 317.371094 236.039062 317.636719 236.328125 317.960938 236.328125 C 318.925781 236.328125 319.484375 238.285156 318.632812 238.675781 C 318.085938 238.925781 318.074219 239.121094 318.574219 239.347656 C 318.957031 239.527344 319.265625 239.433594 319.265625 239.144531 C 319.265625 238.855469 319.550781 238.75 319.898438 238.910156 C 320.941406 239.386719 320.613281 239.996094 319.105469 240.375 C 318.324219 240.574219 317.519531 240.707031 317.3125 240.667969 C 317.101562 240.628906 317.058594 241.09375 317.210938 241.695312 C 317.40625 242.457031 317.050781 243.007812 316.046875 243.527344 C 315.253906 243.941406 314.796875 244.417969 315.019531 244.585938 C 315.242188 244.75 315.878906 244.546875 316.441406 244.128906 C 317.738281 243.167969 319.085938 243.105469 318.023438 244.058594 C 317.601562 244.433594 317.472656 244.984375 317.726562 245.289062 C 318.0625 245.695312 317.605469 245.765625 315.96875 245.539062 C 314.230469 245.296875 313.652344 245.394531 313.34375 245.992188 C 313.058594 246.546875 313.207031 246.6875 313.894531 246.492188 C 314.960938 246.1875 315.015625 246.253906 314.46875 247.3125 C 314.257812 247.71875 313.785156 247.921875 313.421875 247.753906 C 313.054688 247.585938 312.933594 247.667969 313.164062 247.945312 C 313.394531 248.21875 313.417969 248.78125 313.203125 249.191406 C 312.824219 249.925781 311.589844 250.269531 311.785156 249.585938 C 311.839844 249.394531 311.679688 248.855469 311.410156 248.398438 C 311.097656 247.871094 311.617188 246.0625 312.828125 243.46875 C 313.882812 241.21875 314.925781 238.40625 315.160156 237.222656 C 315.433594 235.832031 315.90625 235.082031 316.480469 235.082031 Z M 241.191406 236.5625 C 241.578125 236.566406 242.074219 236.597656 242.671875 236.664062 C 243.925781 236.804688 244.726562 237.179688 244.726562 237.601562 C 244.726562 237.984375 245.28125 238.882812 245.96875 239.597656 C 247.640625 241.34375 248.679688 243.367188 247.882812 243.367188 C 247.542969 243.367188 247.25 243.59375 247.25 243.867188 C 247.25 244.140625 247.515625 244.242188 247.824219 244.101562 C 248.429688 243.824219 249.132812 245.347656 249.148438 246.960938 C 249.152344 247.515625 248.699219 248.09375 248.140625 248.253906 C 247.429688 248.457031 247.226562 248.34375 247.46875 247.871094 C 247.660156 247.5 247.382812 246.933594 246.855469 246.609375 C 246.332031 246.285156 246.039062 245.628906 246.207031 245.15625 C 246.371094 244.6875 246.226562 244.183594 245.890625 244.027344 C 245.550781 243.871094 245.433594 243.398438 245.632812 242.972656 C 245.898438 242.402344 245.742188 242.433594 245.039062 243.105469 C 244.195312 243.917969 243.820312 243.792969 244.035156 242.78125 C 244.074219 242.585938 243.808594 242.429688 243.460938 242.429688 C 243.113281 242.429688 242.828125 242.203125 242.828125 241.914062 C 242.828125 241.628906 243.257812 241.519531 243.777344 241.667969 C 244.296875 241.816406 244.726562 241.726562 244.726562 241.476562 C 244.726562 241.226562 244.292969 241.019531 243.757812 241.019531 C 242.308594 241.019531 241.09375 239.988281 241.429688 239.039062 C 241.589844 238.582031 241.96875 238.203125 242.277344 238.203125 C 243.421875 238.203125 242.789062 237.367188 241.449219 237.105469 C 239.921875 236.808594 240.03125 236.554688 241.191406 236.5625 Z M 243.738281 239.144531 C 243.195312 239.144531 242.949219 239.351562 243.164062 239.613281 C 243.382812 239.875 243.828125 239.980469 244.152344 239.832031 C 245.027344 239.429688 244.847656 239.144531 243.738281 239.144531 Z M 253.824219 243.367188 C 253.6875 243.367188 253.570312 243.683594 253.570312 244.070312 C 253.570312 244.460938 253.84375 244.777344 254.179688 244.777344 C 254.515625 244.777344 254.636719 244.460938 254.4375 244.070312 C 254.238281 243.683594 253.960938 243.367188 253.824219 243.367188 Z M 318.832031 247.007812 C 319.554688 247.003906 320.171875 247.054688 320.292969 247.195312 C 320.472656 247.410156 320.304688 247.59375 319.9375 247.59375 C 319.570312 247.59375 319.265625 247.910156 319.265625 248.296875 C 319.265625 249.179688 317.941406 249.179688 316.898438 248.296875 C 316.460938 247.929688 316.105469 247.542969 316.105469 247.429688 C 316.105469 247.183594 317.625 247.011719 318.832031 247.007812 Z M 300.570312 248.679688 C 300.546875 248.683594 300.511719 248.691406 300.492188 248.707031 C 300.328125 248.832031 300.382812 249.164062 300.609375 249.441406 C 301.234375 250.191406 301.589844 250.046875 301.164062 249.222656 C 300.984375 248.871094 300.742188 248.644531 300.570312 248.679688 Z M 319.34375 250.410156 C 319.648438 250.410156 319.910156 250.566406 319.917969 250.761719 C 319.921875 250.953125 320.109375 251.621094 320.332031 252.242188 C 320.644531 253.109375 320.539062 253.285156 319.898438 252.992188 C 319.289062 252.710938 319.15625 252.816406 319.441406 253.371094 C 319.660156 253.792969 319.554688 254.269531 319.207031 254.429688 C 318.789062 254.621094 318.796875 254.910156 319.207031 255.277344 C 319.757812 255.773438 317.925781 258.425781 315.59375 260.515625 C 315.292969 260.785156 314.882812 261.3125 314.683594 261.6875 C 314.480469 262.074219 314.300781 261.816406 314.269531 261.085938 C 314.242188 260.378906 314.496094 259.796875 314.84375 259.796875 C 315.191406 259.796875 315.476562 259.378906 315.476562 258.859375 C 315.476562 258.015625 316.519531 256.207031 317.371094 255.570312 C 317.542969 255.441406 317.71875 255.125 317.746094 254.867188 C 317.914062 253.132812 318.886719 250.410156 319.34375 250.410156 Z M 271.273438 262.613281 C 270.9375 262.613281 270.835938 262.929688 271.039062 263.316406 C 271.238281 263.703125 271.511719 264.019531 271.648438 264.019531 C 271.785156 264.019531 271.886719 263.703125 271.886719 263.316406 C 271.886719 262.929688 271.609375 262.613281 271.273438 262.613281 Z M 290.796875 272.9375 C 291.167969 272.9375 291.46875 273.152344 291.46875 273.410156 C 291.46875 273.667969 291.347656 273.878906 291.191406 273.878906 C 291.039062 273.878906 290.738281 273.667969 290.523438 273.410156 C 290.308594 273.152344 290.429688 272.9375 290.796875 272.9375 Z M 295.753906 275.769531 C 296.0625 275.773438 296.695312 275.972656 297.511719 276.414062 C 298.183594 276.78125 298.597656 277.191406 298.417969 277.324219 C 298.238281 277.457031 297.386719 277.15625 296.523438 276.664062 C 295.511719 276.085938 295.359375 275.765625 295.753906 275.769531 Z M 296.464844 280.449219 C 296.8125 280.449219 297.257812 280.660156 297.472656 280.917969 C 297.683594 281.175781 297.582031 281.386719 297.234375 281.386719 C 296.886719 281.386719 296.421875 281.175781 296.207031 280.917969 C 295.992188 280.660156 296.117188 280.449219 296.464844 280.449219 Z M 256.726562 286.082031 C 257.074219 286.082031 257.359375 286.292969 257.359375 286.550781 C 257.359375 286.808594 257.074219 287.019531 256.726562 287.019531 C 256.378906 287.019531 256.09375 286.808594 256.09375 286.550781 C 256.09375 286.292969 256.378906 286.082031 256.726562 286.082031 Z M 258.621094 286.082031 C 258.96875 286.082031 259.253906 286.292969 259.253906 286.550781 C 259.253906 286.808594 258.96875 287.019531 258.621094 287.019531 C 258.273438 287.019531 257.988281 286.808594 257.988281 286.550781 C 257.988281 286.292969 258.273438 286.082031 258.621094 286.082031 Z M 261.148438 286.347656 C 261.484375 286.347656 261.78125 286.480469 261.78125 286.757812 C 261.78125 286.84375 261.375 287.039062 260.871094 287.183594 C 260.261719 287.355469 260.066406 287.222656 260.300781 286.769531 C 260.441406 286.492188 260.8125 286.347656 261.148438 286.347656 Z M 310.914062 288.984375 C 310.667969 289 310.355469 289.050781 309.988281 289.117188 C 309.011719 289.300781 308.121094 289.519531 307.992188 289.617188 C 307.667969 289.859375 309.3125 291.03125 310.441406 291.363281 C 310.957031 291.511719 311.511719 291.652344 311.683594 291.671875 C 311.882812 291.691406 312.613281 291.414062 313.421875 291.054688 C 313.363281 290.925781 313.308594 290.804688 313.246094 290.671875 C 312.617188 290.824219 312.390625 290.546875 312.121094 289.777344 C 311.902344 289.15625 311.652344 288.941406 310.914062 288.984375 Z M 302.761719 290.070312 C 302.417969 290.070312 302.210938 290.242188 302.210938 290.554688 C 302.210938 291.316406 303.199219 291.480469 303.75 290.820312 C 303.941406 290.589844 303.675781 290.277344 303.15625 290.128906 C 303.015625 290.089844 302.878906 290.074219 302.761719 290.070312 Z M 304.875 291.523438 C 304.4375 291.503906 304.207031 291.835938 304.5 292.402344 C 304.6875 292.765625 305.246094 292.949219 305.722656 292.816406 C 306.402344 292.621094 306.417969 292.429688 305.820312 291.949219 C 305.472656 291.667969 305.136719 291.535156 304.875 291.523438 Z M 312.257812 292.316406 C 311.980469 292.351562 311.8125 292.597656 311.863281 293.09375 C 311.914062 293.585938 312.140625 293.90625 312.375 293.796875 C 312.613281 293.6875 312.964844 294.015625 313.144531 294.53125 C 313.328125 295.042969 313.773438 295.46875 314.152344 295.46875 C 315.019531 295.46875 315.023438 295.402344 314.054688 293.769531 C 313.476562 292.796875 312.714844 292.253906 312.257812 292.316406 Z M 255.464844 295 C 255.8125 295 256.097656 295.089844 256.097656 295.207031 C 256.097656 295.320312 255.8125 295.542969 255.464844 295.703125 C 255.117188 295.863281 254.832031 295.773438 254.832031 295.5 C 254.832031 295.226562 255.117188 295 255.464844 295 Z M 310.660156 295.042969 C 310.515625 295.007812 310.566406 295.183594 310.777344 295.601562 C 311.015625 296.066406 311.375 296.332031 311.570312 296.1875 C 311.761719 296.042969 311.566406 295.65625 311.132812 295.335938 C 310.898438 295.164062 310.746094 295.066406 310.660156 295.042969 Z M 260.003906 297.347656 C 260.59375 297.34375 261.25 297.558594 261.464844 297.816406 C 261.679688 298.074219 261.539062 298.285156 261.148438 298.285156 C 260.761719 298.285156 260.621094 298.496094 260.835938 298.753906 C 261.050781 299.011719 261.066406 299.226562 260.875 299.226562 C 260.679688 299.226562 260.519531 299.117188 260.519531 298.988281 C 260.519531 298.304688 260.332031 298.011719 259.667969 297.699219 C 259.195312 297.472656 259.308594 297.351562 260.003906 297.347656 Z M 306.433594 301.761719 C 307.496094 301.722656 307.929688 301.875 308.152344 302.304688 C 308.53125 303.039062 306.847656 304.328125 302.742188 306.457031 C 300.800781 307.460938 297.9375 311.429688 299.152344 311.429688 C 299.511719 311.429688 300.539062 311.007812 301.421875 310.488281 C 302.398438 309.917969 303.980469 309.550781 305.46875 309.550781 C 307.617188 309.550781 307.894531 309.683594 307.894531 310.664062 C 307.894531 311.277344 308.082031 312.472656 308.308594 313.320312 C 308.59375 314.375 308.523438 314.753906 308.054688 314.539062 C 307.675781 314.363281 307.1875 314.417969 306.988281 314.65625 C 306.789062 314.894531 306.0625 314.980469 305.367188 314.847656 C 304.664062 314.707031 304.105469 314.832031 304.105469 315.125 C 304.105469 315.414062 304.511719 315.652344 305.011719 315.652344 C 305.515625 315.652344 306.128906 315.898438 306.375 316.195312 C 306.675781 316.554688 306.550781 316.609375 306 316.355469 C 305.382812 316.074219 305.261719 316.234375 305.527344 316.988281 C 305.792969 317.746094 305.601562 318 304.757812 318 C 302.96875 318 301.996094 319.167969 302.824219 320.316406 C 303.359375 321.0625 303.328125 321.28125 302.703125 321.269531 C 300.960938 321.238281 298 318.410156 298.753906 317.5 C 299.429688 316.691406 298.375 315.183594 297.136719 315.183594 C 296.125 315.183594 296.019531 315.007812 296.503906 314.054688 C 296.941406 313.203125 296.851562 312.855469 296.167969 312.660156 C 295.667969 312.515625 295.261719 312.074219 295.261719 311.675781 C 295.261719 311.261719 294.664062 310.933594 293.839844 310.898438 C 292.769531 310.859375 292.691406 310.796875 293.523438 310.636719 C 294.132812 310.519531 294.628906 310.058594 294.628906 309.609375 C 294.628906 308.671875 300.1875 304.089844 301.085938 304.285156 C 301.414062 304.355469 301.53125 304.21875 301.339844 303.992188 C 300.679688 303.195312 302.558594 302.148438 305.152344 301.863281 C 305.660156 301.808594 306.082031 301.773438 306.433594 301.761719 Z M 290.957031 306.03125 C 291.316406 306.042969 291.472656 306.289062 291.472656 306.777344 C 291.472656 307.300781 291.1875 307.597656 290.839844 307.4375 C 290.492188 307.277344 290.207031 307.371094 290.207031 307.644531 C 290.207031 307.917969 290.703125 308.144531 291.292969 308.144531 C 292.097656 308.144531 291.816406 308.554688 290.207031 309.785156 C 289.027344 310.6875 288.410156 311.429688 288.824219 311.429688 C 289.242188 311.429688 289.574219 311.640625 289.574219 311.898438 C 289.574219 312.480469 288.914062 312.484375 287.699219 311.914062 C 287.191406 311.671875 286.96875 311.339844 287.207031 311.164062 C 287.445312 310.988281 287.394531 310.488281 287.089844 310.0625 C 286.683594 309.503906 286.949219 308.992188 288.054688 308.203125 C 288.894531 307.601562 289.574219 306.9375 289.574219 306.734375 C 289.574219 306.53125 290.003906 306.238281 290.523438 306.089844 C 290.6875 306.042969 290.839844 306.027344 290.957031 306.03125 Z M 312.832031 306.867188 C 313.28125 306.886719 313.460938 308.03125 313.460938 310.695312 C 313.460938 312.902344 313.367188 314.714844 313.246094 314.714844 C 313.125 314.714844 312.867188 313.816406 312.671875 312.71875 C 311.980469 308.835938 311.996094 307.074219 312.730469 306.882812 C 312.765625 306.871094 312.800781 306.867188 312.832031 306.867188 Z M 286.417969 316.121094 C 286.765625 316.121094 287.046875 316.214844 287.046875 316.328125 C 287.046875 316.441406 286.765625 316.667969 286.417969 316.828125 C 286.070312 316.984375 285.785156 316.894531 285.785156 316.621094 C 285.785156 316.347656 286.070312 316.121094 286.417969 316.121094 Z M 286.476562 317.589844 C 286.695312 317.582031 286.9375 317.609375 287.167969 317.675781 C 287.671875 317.828125 287.527344 317.933594 286.792969 317.957031 C 286.125 317.976562 285.753906 317.878906 285.960938 317.722656 C 286.066406 317.644531 286.257812 317.597656 286.476562 317.589844 Z M 303.53125 318.996094 C 303.75 318.992188 303.996094 319.019531 304.222656 319.085938 C 304.726562 319.234375 304.582031 319.339844 303.847656 319.363281 C 303.183594 319.382812 302.808594 319.285156 303.019531 319.128906 C 303.125 319.050781 303.3125 319.003906 303.53125 318.996094 Z M 276.722656 320.84375 C 276.859375 320.839844 276.941406 320.945312 276.941406 321.210938 C 276.941406 321.539062 277.226562 321.679688 277.574219 321.519531 C 277.953125 321.347656 278.203125 321.960938 278.203125 323.058594 C 278.203125 324.378906 277.949219 324.878906 277.257812 324.878906 C 275.96875 324.878906 275.269531 324.097656 275.402344 322.78125 C 275.492188 321.894531 276.320312 320.859375 276.722656 320.84375 Z M 300.117188 320.890625 C 300.375 320.847656 300.730469 320.933594 301.003906 321.140625 C 301.800781 321.730469 301.097656 325.039062 300.175781 325.039062 C 299.832031 325.039062 299.71875 325.359375 299.917969 325.746094 C 300.125 326.144531 299.925781 326.449219 299.464844 326.449219 C 298.828125 326.449219 298.792969 325.996094 299.308594 324.351562 C 299.707031 323.070312 300.15625 322.480469 300.453125 322.824219 C 300.730469 323.152344 300.941406 323.183594 300.945312 322.898438 C 300.953125 322.628906 300.605469 322.164062 300.195312 321.859375 C 299.785156 321.550781 299.65625 321.160156 299.898438 320.976562 C 299.960938 320.933594 300.03125 320.902344 300.117188 320.890625 Z M 285.488281 322.445312 C 285.59375 322.410156 285.800781 322.4375 286.082031 322.519531 C 286.621094 322.671875 287.046875 322.871094 287.046875 322.972656 C 287.046875 323.351562 285.859375 323.140625 285.488281 322.695312 C 285.378906 322.5625 285.382812 322.476562 285.488281 322.445312 Z M 292.753906 325.039062 C 293.089844 325.039062 293.367188 325.359375 293.367188 325.746094 C 293.367188 326.132812 293.265625 326.449219 293.128906 326.449219 C 292.992188 326.449219 292.714844 326.132812 292.515625 325.746094 C 292.316406 325.359375 292.417969 325.039062 292.753906 325.039062 Z M 270.128906 325.054688 C 270.199219 325.0625 270.242188 325.078125 270.289062 325.113281 C 270.402344 325.203125 270.101562 325.542969 269.617188 325.875 C 269.132812 326.210938 268.730469 326.277344 268.730469 326.023438 C 268.730469 325.597656 269.660156 325.011719 270.128906 325.054688 Z M 295.457031 326.257812 C 295.507812 326.257812 295.570312 326.269531 295.636719 326.289062 C 296.0625 326.410156 296.574219 326.867188 296.78125 327.300781 C 296.988281 327.734375 297.328125 328.355469 297.53125 328.679688 C 297.734375 329 297.664062 329.257812 297.371094 329.25 C 297.082031 329.242188 296.398438 328.519531 295.851562 327.652344 C 295.246094 326.691406 295.121094 326.25 295.457031 326.257812 Z M 263.890625 326.464844 C 264.0625 326.441406 264.179688 326.472656 264.226562 326.566406 C 264.355469 326.816406 264.074219 327.207031 263.597656 327.433594 C 262.046875 328.160156 261.539062 327.886719 262.785156 326.992188 C 263.203125 326.691406 263.609375 326.5 263.890625 326.464844 Z M 290.484375 328.0625 C 290.664062 328.058594 291.042969 328.109375 291.648438 328.195312 C 292.597656 328.328125 293.363281 328.625 293.363281 328.855469 C 293.363281 329.457031 292.523438 329.359375 291.132812 328.605469 C 290.425781 328.21875 290.179688 328.070312 290.484375 328.0625 Z M 263.832031 328.871094 C 263.917969 328.855469 263.988281 328.867188 264.03125 328.898438 C 264.1875 329.015625 263.738281 329.5 263.042969 329.96875 C 262.347656 330.4375 261.78125 330.671875 261.78125 330.484375 C 261.78125 330.050781 263.238281 328.960938 263.832031 328.867188 Z M 300.550781 328.882812 C 300.59375 328.871094 300.65625 328.890625 300.707031 328.929688 C 300.917969 329.082031 300.929688 329.484375 300.746094 329.824219 C 300.546875 330.195312 300.402344 330.089844 300.371094 329.542969 C 300.351562 329.171875 300.421875 328.917969 300.550781 328.882812 Z M 298.675781 328.972656 C 298.902344 328.976562 299.050781 329.152344 299.050781 329.441406 C 299.050781 329.828125 298.765625 330.277344 298.417969 330.4375 C 298.070312 330.597656 297.785156 330.414062 297.785156 330.027344 C 297.785156 329.640625 298.070312 329.191406 298.417969 329.03125 C 298.503906 328.992188 298.597656 328.972656 298.675781 328.972656 Z M 291.46875 329.734375 C 291.816406 329.734375 292.101562 329.824219 292.101562 329.941406 C 292.101562 330.054688 291.816406 330.277344 291.46875 330.4375 C 291.121094 330.597656 290.839844 330.507812 290.839844 330.234375 C 290.839844 329.960938 291.121094 329.734375 291.46875 329.734375 Z M 266.871094 331.15625 C 266.550781 331.214844 266.175781 331.445312 265.984375 331.816406 C 265.75 332.273438 265.945312 332.417969 266.558594 332.242188 C 267.058594 332.097656 267.464844 331.796875 267.464844 331.566406 C 267.464844 331.230469 267.195312 331.101562 266.871094 331.15625 Z M 299.328125 332.082031 C 299.480469 332.082031 299.78125 332.292969 299.996094 332.550781 C 300.210938 332.808594 300.089844 333.019531 299.722656 333.019531 C 299.351562 333.019531 299.050781 332.808594 299.050781 332.550781 C 299.050781 332.292969 299.171875 332.082031 299.328125 332.082031 Z M 289.003906 333.226562 C 288.332031 333.226562 287.925781 333.390625 288.09375 333.59375 C 288.261719 333.796875 288.796875 333.960938 289.296875 333.960938 C 289.800781 333.960938 290.207031 333.796875 290.207031 333.59375 C 290.207031 333.390625 289.671875 333.226562 289.003906 333.226562 Z M 258.382812 339.328125 C 258.453125 339.304688 258.550781 339.316406 258.640625 339.355469 C 258.984375 339.515625 259.253906 339.9375 259.253906 340.296875 C 259.253906 341.476562 258.261719 341.425781 258.128906 340.238281 C 258.070312 339.734375 258.175781 339.394531 258.382812 339.328125 Z M 294.902344 344.285156 C 294.363281 344.285156 294.113281 344.492188 294.332031 344.753906 C 294.550781 345.015625 294.996094 345.125 295.316406 344.976562 C 296.195312 344.574219 296.011719 344.285156 294.902344 344.285156 Z M 261.144531 348.039062 C 260.800781 348.039062 260.515625 348.265625 260.515625 348.539062 C 260.515625 348.8125 260.800781 348.902344 261.144531 348.746094 C 261.492188 348.585938 261.777344 348.359375 261.777344 348.246094 C 261.777344 348.132812 261.492188 348.039062 261.144531 348.039062 Z M 263.296875 350.417969 C 263.136719 350.46875 263.042969 350.707031 263.042969 351.121094 C 263.042969 351.523438 263.339844 351.722656 263.691406 351.5625 C 264.046875 351.398438 264.167969 351.066406 263.96875 350.828125 C 263.699219 350.5 263.460938 350.363281 263.296875 350.417969 Z M 289.949219 359.304688 C 288.746094 359.304688 288.496094 359.496094 288.765625 360.257812 C 289.269531 361.699219 287.265625 363.121094 285.230469 362.753906 C 284.324219 362.589844 283.359375 362.214844 283.097656 361.929688 C 282.769531 361.574219 282.476562 361.578125 282.152344 361.917969 C 281.53125 362.5625 278.835938 362.667969 278.835938 362.046875 C 278.835938 361.785156 277.890625 362.011719 276.722656 362.546875 C 274.253906 363.679688 273.042969 363.804688 273.523438 362.871094 C 273.710938 362.507812 273.507812 362.058594 273.070312 361.859375 C 272.617188 361.652344 272.183594 361.71875 272.042969 362.035156 C 271.90625 362.339844 271.113281 362.589844 270.285156 362.589844 C 269.429688 362.589844 268.476562 363 268.09375 363.53125 C 267.726562 364.042969 267.078125 364.414062 266.65625 364.351562 C 265.601562 364.195312 263.671875 361.832031 263.671875 360.699219 C 263.671875 359.144531 261.800781 359.625 261.324219 361.300781 C 261.085938 362.140625 260.898438 363.089844 260.929688 363.414062 C 260.960938 363.734375 261.023438 364.496094 261.066406 365.113281 C 261.175781 366.675781 263.027344 368.152344 265.214844 368.429688 C 267.613281 368.730469 268.316406 369.3125 267.800781 370.527344 C 267.300781 371.691406 265.921875 371.769531 262.824219 370.804688 C 262.003906 370.550781 260.9375 370.34375 260.003906 370.21875 C 261.378906 371.140625 263.339844 371.960938 266.0625 372.59375 C 266.085938 372.671875 266.109375 372.820312 266.160156 373.035156 C 266.167969 373.070312 266.171875 373.070312 266.179688 373.109375 C 266.203125 373.199219 266.226562 373.292969 266.257812 373.402344 C 266.296875 373.527344 266.339844 373.664062 266.398438 373.8125 C 266.40625 373.832031 266.410156 373.851562 266.417969 373.871094 C 266.484375 374.035156 266.578125 374.207031 266.675781 374.398438 C 266.773438 374.59375 266.890625 374.808594 267.03125 375.03125 C 267.15625 375.234375 267.296875 375.453125 267.464844 375.675781 C 267.542969 375.785156 267.628906 375.902344 267.71875 376.011719 C 267.816406 376.132812 267.90625 376.238281 268.015625 376.363281 L 268.136719 376.496094 C 268.363281 376.75 268.601562 377.015625 268.886719 377.289062 C 268.886719 377.289062 271.421875 382.179688 276.464844 382.585938 C 276.257812 382.503906 276.082031 382.414062 275.992188 382.304688 C 275.496094 381.710938 276.335938 381.710938 277.570312 382.304688 C 277.808594 382.421875 277.96875 382.503906 278.066406 382.570312 C 278.203125 382.554688 278.339844 382.53125 278.480469 382.511719 C 284.859375 383.480469 289.078125 378.242188 289.078125 378.242188 C 291.726562 375.683594 290.773438 372.929688 290.875 372.59375 C 293.964844 371.691406 296.332031 369.84375 297.804688 367.929688 C 298 367.679688 298.175781 367.421875 298.339844 367.167969 C 298.371094 367.121094 298.386719 367.070312 298.417969 367.019531 C 298.207031 366.851562 298.117188 366.648438 298.21875 366.421875 C 298.410156 365.996094 297.925781 366.292969 297.132812 367.078125 C 295.871094 368.335938 294.742188 368.789062 290.125 369.925781 C 289.355469 370.113281 289.101562 369.875 289.101562 368.972656 C 289.101562 368.035156 289.613281 367.601562 291.429688 367.007812 C 293.699219 366.261719 293.757812 366.171875 293.621094 363.925781 C 293.449219 361.121094 292.015625 359.304688 289.949219 359.304688 Z M 299.304688 362.722656 C 299.269531 362.925781 299.207031 363.15625 299.109375 363.414062 C 298.730469 364.390625 298.726562 365.035156 299.207031 365.453125 C 299.277344 365.261719 299.335938 365.074219 299.382812 364.894531 C 299.390625 364.863281 299.398438 364.835938 299.402344 364.804688 C 299.4375 364.675781 299.460938 364.5625 299.484375 364.441406 C 299.558594 363.980469 299.566406 363.558594 299.484375 363.191406 C 299.457031 363.085938 299.421875 362.984375 299.382812 362.886719 C 299.359375 362.824219 299.328125 362.777344 299.304688 362.722656 Z M 257.179688 365.980469 C 257.226562 366.492188 257.347656 367 257.574219 367.503906 C 257.53125 367.347656 257.53125 367.179688 257.613281 367.019531 C 257.792969 366.667969 257.667969 366.25 257.335938 366.097656 C 257.277344 366.070312 257.230469 366.027344 257.179688 365.980469 Z M 257.710938 367.796875 C 257.914062 368.1875 258.183594 368.582031 258.519531 368.957031 C 258.71875 368.695312 258.527344 368.242188 257.949219 367.976562 C 257.855469 367.933594 257.773438 367.867188 257.710938 367.796875 Z M 257.710938 367.796875 " fill-opacity="1" fill-rule="nonzero"/></g><g fill="#1c2826" fill-opacity="1"><g transform="translate(387.540976, 303.86212)"><g><path d="M 54.921875 0 L 46.9375 -41.128906 L 36.171875 -41.128906 L 27.640625 -12.277344 L 19.054688 -41.128906 L 8.285156 -41.128906 L 0.300781 0 L 10.28125 0 L 15.121094 -28.367188 L 23.167969 0 L 32.058594 0 L 40.101562 -28.367188 L 44.941406 0 Z M 54.921875 0 "/></g></g></g><g fill="#1c2826" fill-opacity="1"><g transform="translate(442.759985, 303.86212)"><g><path d="M 14.457031 15.121094 L 20.261719 0 L 30.425781 -26.675781 L 21.230469 -26.675781 L 14.878906 -7.621094 L 8.527344 -26.675781 L -0.605469 -26.675781 L 9.558594 0 L 11.070312 0 L 5.019531 15.121094 Z M 14.457031 15.121094 "/></g></g></g><g fill="#1c2826" fill-opacity="1"><g transform="translate(472.577041, 303.86212)"><g/></g></g><g fill="#1c2826" fill-opacity="1"><g transform="translate(487.697248, 303.86212)"><g><path d="M 12.582031 -8.347656 L 12.582031 -32.722656 L 15.304688 -32.722656 C 22.320312 -32.722656 27.039062 -27.398438 27.039062 -20.566406 C 27.039062 -13.730469 22.257812 -8.347656 15.304688 -8.347656 Z M 3.628906 -41.128906 L 3.628906 0 L 15.847656 0 C 27.519531 0 36.292969 -8.953125 36.292969 -20.566406 C 36.292969 -32.179688 27.460938 -41.128906 15.847656 -41.128906 Z M 3.628906 -41.128906 "/></g></g></g><g fill="#1c2826" fill-opacity="1"><g transform="translate(526.102585, 303.86212)"><g><path d="M 17.359375 -6.289062 C 12.460938 -6.289062 11.128906 -9.859375 11.128906 -13.246094 C 11.128906 -16.574219 12.582031 -20.140625 17.359375 -20.140625 C 22.078125 -20.140625 23.527344 -16.574219 23.527344 -13.246094 C 23.527344 -9.859375 22.199219 -6.289062 17.359375 -6.289062 Z M 17.359375 -27.21875 C 9.011719 -27.21875 2.117188 -21.652344 2.117188 -13.308594 C 2.117188 -4.777344 8.832031 0.542969 17.359375 0.542969 C 25.828125 0.542969 32.542969 -4.777344 32.542969 -13.308594 C 32.542969 -21.652344 25.644531 -27.21875 17.359375 -27.21875 Z M 17.359375 -27.21875 "/></g></g></g><g fill="#1c2826" fill-opacity="1"><g transform="translate(560.758111, 303.86212)"><g><path d="M 30.910156 -15.121094 C 30.910156 -22.378906 28.003906 -27.277344 20.867188 -27.277344 C 17.359375 -27.277344 14.515625 -25.707031 12.703125 -23.40625 L 12.703125 -26.675781 L 3.628906 -26.675781 L 3.628906 0 L 12.703125 0 L 12.703125 -13.308594 C 12.703125 -16.9375 14.941406 -19.960938 17.78125 -19.960938 C 20.625 -19.960938 21.835938 -18.265625 21.835938 -15.121094 L 21.835938 0 L 30.910156 0 Z M 30.910156 -15.121094 "/></g></g></g><g fill="#1c2826" fill-opacity="1"><g transform="translate(594.385474, 303.86212)"><g><path d="M 12.703125 -11.792969 L 22.078125 0 L 33.691406 0 L 20.988281 -13.972656 L 32.480469 -26.675781 L 21.230469 -26.675781 L 12.703125 -16.089844 L 12.703125 -45.363281 L 3.628906 -45.363281 L 3.628906 0 L 12.703125 0 Z M 12.703125 -11.792969 "/></g></g></g><g fill="#1c2826" fill-opacity="1"><g transform="translate(626.258875, 303.86212)"><g><path d="M 11.855469 -16.511719 C 11.855469 -16.511719 12.15625 -21.472656 17.84375 -21.472656 C 23.347656 -21.472656 23.769531 -16.511719 23.769531 -16.511719 Z M 32.480469 -13.910156 C 32.480469 -22.441406 25.765625 -27.277344 17.660156 -27.277344 C 8.710938 -27.277344 2.117188 -21.652344 2.117188 -13.308594 C 2.117188 -4.839844 8.46875 0.605469 17.660156 0.605469 C 24.738281 0.605469 30.425781 -2.902344 31.996094 -9.917969 L 22.742188 -9.917969 C 22.683594 -7.984375 20.6875 -5.867188 17.480469 -5.867188 C 13.910156 -5.867188 11.734375 -9.132812 11.734375 -12.21875 L 32.421875 -12.21875 C 32.421875 -12.761719 32.480469 -13.367188 32.480469 -13.910156 Z M 32.480469 -13.910156 "/></g></g></g><g fill="#1c2826" fill-opacity="1"><g transform="translate(660.853925, 303.86212)"><g><path d="M 14.457031 15.121094 L 20.261719 0 L 30.425781 -26.675781 L 21.230469 -26.675781 L 14.878906 -7.621094 L 8.527344 -26.675781 L -0.605469 -26.675781 L 9.558594 0 L 11.070312 0 L 5.019531 15.121094 Z M 14.457031 15.121094 "/></g></g></g><g fill="#1c2826" fill-opacity="1"><g transform="translate(690.670981, 303.86212)"><g/></g></g><g fill="#1c2826" fill-opacity="1"><g transform="translate(705.791178, 303.86212)"><g><path d="M 12.582031 -8.347656 L 12.582031 -32.722656 L 15.304688 -32.722656 C 22.320312 -32.722656 27.039062 -27.398438 27.039062 -20.566406 C 27.039062 -13.730469 22.257812 -8.347656 15.304688 -8.347656 Z M 3.628906 -41.128906 L 3.628906 0 L 15.847656 0 C 27.519531 0 36.292969 -8.953125 36.292969 -20.566406 C 36.292969 -32.179688 27.460938 -41.128906 15.847656 -41.128906 Z M 3.628906 -41.128906 "/></g></g></g><g fill="#1c2826" fill-opacity="1"><g transform="translate(744.196515, 303.86212)"><g><path d="M 3.144531 -35.808594 C 3.144531 -32.90625 5.503906 -30.484375 8.46875 -30.484375 C 11.371094 -30.484375 13.789062 -32.90625 13.789062 -35.808594 C 13.789062 -38.773438 11.371094 -41.128906 8.46875 -41.128906 C 5.503906 -41.128906 3.144531 -38.773438 3.144531 -35.808594 Z M 13.003906 0 L 13.003906 -26.675781 L 3.929688 -26.675781 L 3.929688 0 Z M 13.003906 0 "/></g></g></g><g fill="#1c2826" fill-opacity="1"><g transform="translate(761.131131, 303.86212)"><g><path d="M 24.496094 -13.308594 C 24.496094 -9.796875 21.773438 -6.652344 18.144531 -6.652344 C 14.515625 -6.652344 11.792969 -9.796875 11.792969 -13.308594 C 11.792969 -16.816406 14.515625 -19.960938 18.144531 -19.960938 C 21.773438 -19.960938 24.496094 -16.816406 24.496094 -13.308594 Z M 33.570312 -26.613281 L 24.496094 -26.613281 L 24.496094 -23.40625 C 22.136719 -26.3125 18.75 -27.277344 15.363281 -27.277344 C 7.800781 -27.277344 2.117188 -20.6875 2.117188 -13.308594 C 2.117188 -5.925781 7.800781 0.605469 15.363281 0.605469 C 18.75 0.605469 22.683594 -0.484375 24.496094 -3.207031 L 24.496094 0 L 33.570312 0 Z M 33.570312 -26.613281 "/></g></g></g><g fill="#1c2826" fill-opacity="1"><g transform="translate(798.326855, 303.86212)"><g><path d="M 18.691406 -19.960938 C 20.082031 -19.960938 21.410156 -19.535156 22.320312 -18.449219 L 22.441406 -18.449219 L 22.441406 -26.675781 C 21.714844 -27.039062 20.503906 -27.277344 19.71875 -27.277344 C 16.390625 -27.277344 14.09375 -25.402344 12.703125 -23.40625 L 12.703125 -26.675781 L 3.628906 -26.675781 L 3.628906 0 L 12.703125 0 L 12.703125 -13.308594 C 12.703125 -16.511719 15.304688 -19.960938 18.691406 -19.960938 Z M 18.691406 -19.960938 "/></g></g></g><g fill="#1c2826" fill-opacity="1"><g transform="translate(821.37005, 303.86212)"><g><path d="M 14.457031 15.121094 L 20.261719 0 L 30.425781 -26.675781 L 21.230469 -26.675781 L 14.878906 -7.621094 L 8.527344 -26.675781 L -0.605469 -26.675781 L 9.558594 0 L 11.070312 0 L 5.019531 15.121094 Z M 14.457031 15.121094 "/></g></g></g><g clip-path="url(#82e210278b)"><path fill="#ffffff" d="M 525.4375 318.894531 L 969.679688 318.894531 C 975.058594 318.894531 980.222656 321.019531 984.027344 324.796875 C 987.832031 328.574219 989.96875 333.699219 989.96875 339.042969 C 989.96875 344.386719 987.832031 349.507812 984.027344 353.289062 C 980.222656 357.066406 975.058594 359.1875 969.679688 359.1875 L 525.4375 359.1875 C 520.054688 359.1875 514.894531 357.066406 511.089844 353.289062 C 507.285156 349.507812 505.144531 344.386719 505.144531 339.042969 C 505.144531 333.699219 507.285156 328.574219 511.089844 324.796875 C 514.894531 321.019531 520.054688 318.894531 525.4375 318.894531 " fill-opacity="1" fill-rule="nonzero"/></g><g fill="#1c2826" fill-opacity="1"><g transform="translate(513.439332, 348.100867)"><g><path d="M 3.871094 -13.371094 L 14.066406 1.121094 L 14.066406 -18.148438 L 12.195312 -18.148438 L 12.195312 -4.804688 L 2 -19.296875 L 2 0 L 3.871094 0 Z M 3.871094 -13.371094 "/></g></g></g><g fill="#1c2826" fill-opacity="1"><g transform="translate(535.004326, 348.100867)"><g><path d="M 13.476562 -6.136719 C 13.476562 -7.738281 12.835938 -9.128906 11.609375 -10.328125 C 10.410156 -11.476562 8.96875 -12.0625 7.339844 -12.0625 C 5.632812 -12.0625 4.191406 -11.449219 2.988281 -10.25 C 1.789062 -9.046875 1.199219 -7.605469 1.199219 -5.925781 C 1.199219 -4.21875 1.789062 -2.777344 2.988281 -1.601562 C 3.550781 -1.039062 4.191406 -0.613281 4.9375 -0.292969 C 5.683594 0.0273438 6.566406 0.1875 7.605469 0.1875 C 8.648438 0.1875 9.660156 -0.132812 10.675781 -0.773438 C 11.691406 -1.414062 12.4375 -2.320312 12.945312 -3.441406 L 10.808594 -3.441406 C 10.382812 -2.882812 9.875 -2.457031 9.261719 -2.136719 C 8.648438 -1.816406 8.007812 -1.679688 7.339844 -1.679688 C 6.324219 -1.679688 5.417969 -2 4.617188 -2.667969 C 3.816406 -3.308594 3.308594 -4.136719 3.148438 -5.152344 L 13.476562 -5.152344 Z M 11.503906 -6.753906 L 3.175781 -6.753906 C 3.28125 -7.234375 3.46875 -7.6875 3.738281 -8.113281 C 4.589844 -9.5 5.792969 -10.195312 7.339844 -10.195312 C 8.328125 -10.195312 9.207031 -9.875 9.980469 -9.234375 C 10.78125 -8.566406 11.261719 -7.738281 11.503906 -6.753906 Z M 11.503906 -6.753906 "/></g></g></g><g fill="#1c2826" fill-opacity="1"><g transform="translate(555.048039, 348.100867)"><g><path d="M 5.683594 1.121094 L 11.074219 -11.742188 L 9.046875 -11.742188 L 5.683594 -3.015625 L 2.296875 -11.742188 L 0.265625 -11.742188 Z M 5.683594 1.121094 "/></g></g></g><g fill="#1c2826" fill-opacity="1"><g transform="translate(571.889047, 348.100867)"><g><path d="M 13.476562 -6.136719 C 13.476562 -7.738281 12.835938 -9.128906 11.609375 -10.328125 C 10.410156 -11.476562 8.96875 -12.0625 7.339844 -12.0625 C 5.632812 -12.0625 4.191406 -11.449219 2.988281 -10.25 C 1.789062 -9.046875 1.199219 -7.605469 1.199219 -5.925781 C 1.199219 -4.21875 1.789062 -2.777344 2.988281 -1.601562 C 3.550781 -1.039062 4.191406 -0.613281 4.9375 -0.292969 C 5.683594 0.0273438 6.566406 0.1875 7.605469 0.1875 C 8.648438 0.1875 9.660156 -0.132812 10.675781 -0.773438 C 11.691406 -1.414062 12.4375 -2.320312 12.945312 -3.441406 L 10.808594 -3.441406 C 10.382812 -2.882812 9.875 -2.457031 9.261719 -2.136719 C 8.648438 -1.816406 8.007812 -1.679688 7.339844 -1.679688 C 6.324219 -1.679688 5.417969 -2 4.617188 -2.667969 C 3.816406 -3.308594 3.308594 -4.136719 3.148438 -5.152344 L 13.476562 -5.152344 Z M 11.503906 -6.753906 L 3.175781 -6.753906 C 3.28125 -7.234375 3.46875 -7.6875 3.738281 -8.113281 C 4.589844 -9.5 5.792969 -10.195312 7.339844 -10.195312 C 8.328125 -10.195312 9.207031 -9.875 9.980469 -9.234375 C 10.78125 -8.566406 11.261719 -7.738281 11.503906 -6.753906 Z M 11.503906 -6.753906 "/></g></g></g><g fill="#1c2826" fill-opacity="1"><g transform="translate(591.93276, 348.100867)"><g><path d="M 8.035156 -9.316406 L 8.035156 -11.742188 C 7.660156 -11.902344 7.257812 -11.984375 6.859375 -11.984375 C 5.523438 -11.984375 4.5625 -11.234375 3.949219 -9.796875 L 3.871094 -9.316406 L 3.871094 -11.742188 L 2 -11.742188 L 2 0 L 3.871094 0 L 3.871094 -5.871094 C 3.871094 -6.832031 4.082031 -7.6875 4.539062 -8.460938 C 4.75 -8.859375 5.042969 -9.207031 5.390625 -9.476562 C 5.738281 -9.742188 6.164062 -9.902344 6.644531 -9.902344 C 7.125 -9.902344 7.578125 -9.6875 8.035156 -9.316406 Z M 8.035156 -9.316406 "/></g></g></g><g fill="#1c2826" fill-opacity="1"><g transform="translate(605.731197, 348.100867)"><g/></g></g><g fill="#1c2826" fill-opacity="1"><g transform="translate(618.435378, 348.100867)"><g><path d="M 8.300781 -18.28125 L 8.300781 -20.015625 L 6.964844 -20.015625 C 5.632812 -20.015625 4.699219 -19.667969 4.136719 -19.03125 C 3.578125 -18.390625 3.308594 -17.453125 3.308594 -16.28125 L 3.308594 -11.742188 L 0.933594 -11.742188 L 0.933594 -10.007812 L 3.308594 -10.007812 L 3.308594 0 L 5.175781 0 L 5.175781 -10.007812 L 8.300781 -10.007812 L 8.300781 -11.742188 L 5.175781 -11.742188 L 5.175781 -16.8125 C 5.175781 -17.214844 5.257812 -17.5625 5.472656 -17.855469 C 5.65625 -18.121094 6.058594 -18.28125 6.699219 -18.28125 Z M 8.300781 -18.28125 "/></g></g></g><g fill="#1c2826" fill-opacity="1"><g transform="translate(633.034496, 348.100867)"><g><path d="M 11.609375 -5.925781 C 11.609375 -4.75 11.183594 -3.761719 10.355469 -2.9375 C 9.5 -2.082031 8.515625 -1.679688 7.339844 -1.679688 C 6.164062 -1.679688 5.152344 -2.082031 4.324219 -2.9375 C 3.46875 -3.761719 3.070312 -4.75 3.070312 -5.925781 C 3.070312 -7.097656 3.46875 -8.085938 4.324219 -8.941406 C 5.152344 -9.769531 6.164062 -10.195312 7.339844 -10.195312 C 8.515625 -10.195312 9.5 -9.769531 10.355469 -8.941406 C 11.183594 -8.085938 11.609375 -7.097656 11.609375 -5.925781 Z M 13.476562 -5.925781 C 13.476562 -7.605469 12.863281 -9.046875 11.664062 -10.25 C 10.460938 -11.449219 9.019531 -12.0625 7.339844 -12.0625 C 5.632812 -12.0625 4.191406 -11.449219 2.988281 -10.25 C 1.789062 -9.046875 1.199219 -7.605469 1.199219 -5.925781 C 1.199219 -4.21875 1.789062 -2.777344 2.988281 -1.601562 C 4.191406 -0.398438 5.65625 0.1875 7.339844 0.1875 C 8.996094 0.1875 10.460938 -0.398438 11.664062 -1.601562 C 12.863281 -2.777344 13.476562 -4.21875 13.476562 -5.925781 Z M 13.476562 -5.925781 "/></g></g></g><g fill="#1c2826" fill-opacity="1"><g transform="translate(653.211659, 348.100867)"><g><path d="M 8.035156 -9.316406 L 8.035156 -11.742188 C 7.660156 -11.902344 7.257812 -11.984375 6.859375 -11.984375 C 5.523438 -11.984375 4.5625 -11.234375 3.949219 -9.796875 L 3.871094 -9.316406 L 3.871094 -11.742188 L 2 -11.742188 L 2 0 L 3.871094 0 L 3.871094 -5.871094 C 3.871094 -6.832031 4.082031 -7.6875 4.539062 -8.460938 C 4.75 -8.859375 5.042969 -9.207031 5.390625 -9.476562 C 5.738281 -9.742188 6.164062 -9.902344 6.644531 -9.902344 C 7.125 -9.902344 7.578125 -9.6875 8.035156 -9.316406 Z M 8.035156 -9.316406 "/></g></g></g><g fill="#1c2826" fill-opacity="1"><g transform="translate(667.010096, 348.100867)"><g><path d="M 11.503906 -5.871094 C 11.503906 -4.722656 11.101562 -3.710938 10.300781 -2.882812 C 9.5 -2.027344 8.515625 -1.601562 7.367188 -1.601562 C 6.21875 -1.601562 5.230469 -2.027344 4.429688 -2.882812 C 3.628906 -3.710938 3.230469 -4.699219 3.230469 -5.871094 C 3.230469 -7.019531 3.628906 -8.007812 4.429688 -8.859375 C 5.230469 -9.714844 6.21875 -10.140625 7.367188 -10.140625 C 8.515625 -10.140625 9.5 -9.714844 10.300781 -8.859375 C 11.101562 -8.007812 11.503906 -6.992188 11.503906 -5.871094 Z M 3.175781 1.601562 L 1.253906 1.601562 C 1.46875 2.855469 2.027344 3.949219 2.988281 4.882812 C 4.164062 6.085938 5.605469 6.671875 7.285156 6.671875 C 8.941406 6.671875 10.382812 6.085938 11.582031 4.882812 C 12.757812 3.710938 13.371094 2.269531 13.371094 0.585938 L 13.371094 -11.742188 L 11.503906 -11.742188 L 11.503906 -9.769531 C 11.394531 -9.875 11.289062 -10.007812 11.183594 -10.140625 C 10.007812 -11.371094 8.648438 -12.011719 7.097656 -12.011719 C 5.445312 -12.011719 4.082031 -11.371094 2.960938 -10.140625 C 1.894531 -8.914062 1.359375 -7.5 1.359375 -5.871094 C 1.359375 -4.21875 1.894531 -2.800781 2.960938 -1.601562 C 4.082031 -0.347656 5.445312 0.265625 7.097656 0.265625 C 8.699219 0.265625 10.0625 -0.347656 11.183594 -1.601562 C 11.289062 -1.707031 11.394531 -1.839844 11.503906 -1.949219 L 11.503906 0.585938 C 11.503906 1.761719 11.074219 2.75 10.25 3.578125 C 9.421875 4.402344 8.433594 4.804688 7.285156 4.804688 C 6.113281 4.804688 5.125 4.402344 4.296875 3.578125 C 3.710938 2.988281 3.335938 2.347656 3.175781 1.601562 Z M 3.175781 1.601562 "/></g></g></g><g fill="#1c2826" fill-opacity="1"><g transform="translate(687.881165, 348.100867)"><g><path d="M 13.476562 -6.136719 C 13.476562 -7.738281 12.835938 -9.128906 11.609375 -10.328125 C 10.410156 -11.476562 8.96875 -12.0625 7.339844 -12.0625 C 5.632812 -12.0625 4.191406 -11.449219 2.988281 -10.25 C 1.789062 -9.046875 1.199219 -7.605469 1.199219 -5.925781 C 1.199219 -4.21875 1.789062 -2.777344 2.988281 -1.601562 C 3.550781 -1.039062 4.191406 -0.613281 4.9375 -0.292969 C 5.683594 0.0273438 6.566406 0.1875 7.605469 0.1875 C 8.648438 0.1875 9.660156 -0.132812 10.675781 -0.773438 C 11.691406 -1.414062 12.4375 -2.320312 12.945312 -3.441406 L 10.808594 -3.441406 C 10.382812 -2.882812 9.875 -2.457031 9.261719 -2.136719 C 8.648438 -1.816406 8.007812 -1.679688 7.339844 -1.679688 C 6.324219 -1.679688 5.417969 -2 4.617188 -2.667969 C 3.816406 -3.308594 3.308594 -4.136719 3.148438 -5.152344 L 13.476562 -5.152344 Z M 11.503906 -6.753906 L 3.175781 -6.753906 C 3.28125 -7.234375 3.46875 -7.6875 3.738281 -8.113281 C 4.589844 -9.5 5.792969 -10.195312 7.339844 -10.195312 C 8.328125 -10.195312 9.207031 -9.875 9.980469 -9.234375 C 10.78125 -8.566406 11.261719 -7.738281 11.503906 -6.753906 Z M 11.503906 -6.753906 "/></g></g></g><g fill="#1c2826" fill-opacity="1"><g transform="translate(707.924878, 348.100867)"><g><path d="M 0.535156 -10.007812 L 3.46875 -10.007812 L 3.46875 0 L 5.335938 0 L 5.335938 -10.007812 L 8.246094 -10.007812 L 8.246094 -11.742188 L 5.335938 -11.742188 L 5.335938 -16.308594 L 3.46875 -16.308594 L 3.46875 -11.742188 L 0.535156 -11.742188 Z M 0.535156 -10.007812 "/></g></g></g><g fill="#1c2826" fill-opacity="1"><g transform="translate(722.203718, 348.100867)"><g/></g></g><g fill="#1c2826" fill-opacity="1"><g transform="translate(734.907899, 348.100867)"><g><path d="M 11.34375 -5.871094 C 11.34375 -4.722656 10.941406 -3.710938 10.140625 -2.882812 C 9.339844 -2.027344 8.355469 -1.601562 7.207031 -1.601562 C 6.03125 -1.601562 5.042969 -2.027344 4.242188 -2.882812 C 3.441406 -3.710938 3.070312 -4.722656 3.070312 -5.871094 C 3.070312 -6.992188 3.441406 -8.007812 4.242188 -8.859375 C 5.042969 -9.714844 6.03125 -10.140625 7.207031 -10.140625 C 8.355469 -10.140625 9.339844 -9.714844 10.140625 -8.859375 C 10.941406 -8.007812 11.34375 -6.992188 11.34375 -5.871094 Z M 13.210938 0 L 13.210938 -11.742188 L 11.34375 -11.742188 L 11.34375 -9.714844 C 11.234375 -9.875 11.101562 -10.007812 10.996094 -10.140625 C 9.875 -11.371094 8.515625 -12.011719 6.914062 -12.011719 C 5.285156 -12.011719 3.921875 -11.371094 2.800781 -10.140625 C 1.734375 -8.914062 1.199219 -7.5 1.199219 -5.871094 C 1.199219 -4.21875 1.734375 -2.800781 2.800781 -1.601562 C 3.921875 -0.347656 5.285156 0.265625 6.914062 0.265625 C 8.515625 0.265625 9.875 -0.347656 10.996094 -1.601562 C 11.101562 -1.707031 11.234375 -1.839844 11.34375 -2 L 11.34375 0 Z M 13.210938 0 "/></g></g></g><g fill="#1c2826" fill-opacity="1"><g transform="translate(755.618853, 348.100867)"><g/></g></g><g fill="#1c2826" fill-opacity="1"><g transform="translate(768.323035, 348.100867)"><g><path d="M 11.34375 -5.871094 C 11.34375 -4.722656 10.941406 -3.710938 10.140625 -2.882812 C 9.339844 -2.027344 8.355469 -1.601562 7.207031 -1.601562 C 6.03125 -1.601562 5.042969 -2.027344 4.242188 -2.882812 C 3.441406 -3.710938 3.070312 -4.722656 3.070312 -5.871094 C 3.070312 -6.992188 3.441406 -8.007812 4.242188 -8.859375 C 5.042969 -9.714844 6.03125 -10.140625 7.207031 -10.140625 C 8.355469 -10.140625 9.339844 -9.714844 10.140625 -8.859375 C 10.941406 -8.007812 11.34375 -6.992188 11.34375 -5.871094 Z M 13.210938 0 L 13.210938 -20.015625 L 11.34375 -20.015625 L 11.34375 -9.714844 C 11.234375 -9.875 11.101562 -10.007812 10.996094 -10.140625 C 9.875 -11.371094 8.515625 -12.011719 6.914062 -12.011719 C 5.285156 -12.011719 3.921875 -11.371094 2.800781 -10.140625 C 1.734375 -8.914062 1.199219 -7.5 1.199219 -5.871094 C 1.199219 -4.21875 1.734375 -2.800781 2.800781 -1.601562 C 3.921875 -0.347656 5.285156 0.265625 6.914062 0.265625 C 8.515625 0.265625 9.875 -0.347656 10.996094 -1.601562 C 11.101562 -1.707031 11.234375 -1.839844 11.34375 -2 L 11.34375 0 Z M 13.210938 0 "/></g></g></g><g fill="#1c2826" fill-opacity="1"><g transform="translate(789.033989, 348.100867)"><g><path d="M 11.609375 -5.925781 C 11.609375 -4.75 11.183594 -3.761719 10.355469 -2.9375 C 9.5 -2.082031 8.515625 -1.679688 7.339844 -1.679688 C 6.164062 -1.679688 5.152344 -2.082031 4.324219 -2.9375 C 3.46875 -3.761719 3.070312 -4.75 3.070312 -5.925781 C 3.070312 -7.097656 3.46875 -8.085938 4.324219 -8.941406 C 5.152344 -9.769531 6.164062 -10.195312 7.339844 -10.195312 C 8.515625 -10.195312 9.5 -9.769531 10.355469 -8.941406 C 11.183594 -8.085938 11.609375 -7.097656 11.609375 -5.925781 Z M 13.476562 -5.925781 C 13.476562 -7.605469 12.863281 -9.046875 11.664062 -10.25 C 10.460938 -11.449219 9.019531 -12.0625 7.339844 -12.0625 C 5.632812 -12.0625 4.191406 -11.449219 2.988281 -10.25 C 1.789062 -9.046875 1.199219 -7.605469 1.199219 -5.925781 C 1.199219 -4.21875 1.789062 -2.777344 2.988281 -1.601562 C 4.191406 -0.398438 5.65625 0.1875 7.339844 0.1875 C 8.996094 0.1875 10.460938 -0.398438 11.664062 -1.601562 C 12.863281 -2.777344 13.476562 -4.21875 13.476562 -5.925781 Z M 13.476562 -5.925781 "/></g></g></g><g fill="#1c2826" fill-opacity="1"><g transform="translate(809.211162, 348.100867)"><g><path d="M 10.113281 0 L 11.984375 0 L 11.984375 -7.339844 C 11.984375 -8.699219 11.609375 -9.796875 10.914062 -10.621094 C 10.542969 -11.050781 10.113281 -11.371094 9.609375 -11.609375 C 9.074219 -11.851562 8.40625 -11.984375 7.578125 -11.984375 C 6.726562 -11.984375 6.003906 -11.742188 5.363281 -11.316406 C 4.75 -10.914062 4.242188 -10.382812 3.871094 -9.714844 L 3.871094 -11.742188 L 2 -11.742188 L 2 0 L 3.871094 0 L 3.871094 -4.910156 C 3.871094 -6.40625 4.136719 -7.578125 4.699219 -8.460938 C 5.015625 -8.941406 5.417969 -9.339844 5.925781 -9.660156 C 6.40625 -9.953125 7.074219 -10.113281 7.875 -10.113281 C 8.675781 -10.113281 9.234375 -9.820312 9.582031 -9.289062 C 9.929688 -8.753906 10.113281 -8.085938 10.113281 -7.339844 Z M 10.113281 0 "/></g></g></g><g fill="#1c2826" fill-opacity="1"><g transform="translate(828.294049, 348.100867)"><g><path d="M 3.871094 0 L 3.871094 -5.632812 L 8.488281 0 L 10.96875 0 L 5.816406 -6.058594 L 10.648438 -11.769531 L 8.167969 -11.769531 L 3.871094 -6.457031 L 3.871094 -20.015625 L 2 -20.015625 L 2 0 Z M 3.871094 0 "/></g></g></g><g fill="#1c2826" fill-opacity="1"><g transform="translate(845.028301, 348.100867)"><g><path d="M 13.476562 -6.136719 C 13.476562 -7.738281 12.835938 -9.128906 11.609375 -10.328125 C 10.410156 -11.476562 8.96875 -12.0625 7.339844 -12.0625 C 5.632812 -12.0625 4.191406 -11.449219 2.988281 -10.25 C 1.789062 -9.046875 1.199219 -7.605469 1.199219 -5.925781 C 1.199219 -4.21875 1.789062 -2.777344 2.988281 -1.601562 C 3.550781 -1.039062 4.191406 -0.613281 4.9375 -0.292969 C 5.683594 0.0273438 6.566406 0.1875 7.605469 0.1875 C 8.648438 0.1875 9.660156 -0.132812 10.675781 -0.773438 C 11.691406 -1.414062 12.4375 -2.320312 12.945312 -3.441406 L 10.808594 -3.441406 C 10.382812 -2.882812 9.875 -2.457031 9.261719 -2.136719 C 8.648438 -1.816406 8.007812 -1.679688 7.339844 -1.679688 C 6.324219 -1.679688 5.417969 -2 4.617188 -2.667969 C 3.816406 -3.308594 3.308594 -4.136719 3.148438 -5.152344 L 13.476562 -5.152344 Z M 11.503906 -6.753906 L 3.175781 -6.753906 C 3.28125 -7.234375 3.46875 -7.6875 3.738281 -8.113281 C 4.589844 -9.5 5.792969 -10.195312 7.339844 -10.195312 C 8.328125 -10.195312 9.207031 -9.875 9.980469 -9.234375 C 10.78125 -8.566406 11.261719 -7.738281 11.503906 -6.753906 Z M 11.503906 -6.753906 "/></g></g></g><g fill="#1c2826" fill-opacity="1"><g transform="translate(865.072014, 348.100867)"><g><path d="M 3.496094 6.671875 L 11.609375 -11.742188 L 9.527344 -11.742188 L 6.164062 -3.871094 L 2.402344 -11.742188 L 0.265625 -11.742188 L 5.175781 -1.921875 L 1.226562 6.671875 Z M 3.496094 6.671875 "/></g></g></g><g fill="#1c2826" fill-opacity="1"><g transform="translate(881.913003, 348.100867)"><g/></g></g><g fill="#1c2826" fill-opacity="1"><g transform="translate(894.617165, 348.100867)"><g><path d="M 11.34375 -5.871094 C 11.34375 -4.722656 10.941406 -3.710938 10.140625 -2.882812 C 9.339844 -2.027344 8.355469 -1.601562 7.207031 -1.601562 C 6.03125 -1.601562 5.042969 -2.027344 4.242188 -2.882812 C 3.441406 -3.710938 3.070312 -4.722656 3.070312 -5.871094 C 3.070312 -6.992188 3.441406 -8.007812 4.242188 -8.859375 C 5.042969 -9.714844 6.03125 -10.140625 7.207031 -10.140625 C 8.355469 -10.140625 9.339844 -9.714844 10.140625 -8.859375 C 10.941406 -8.007812 11.34375 -6.992188 11.34375 -5.871094 Z M 13.210938 0 L 13.210938 -11.742188 L 11.34375 -11.742188 L 11.34375 -9.714844 C 11.234375 -9.875 11.101562 -10.007812 10.996094 -10.140625 C 9.875 -11.371094 8.515625 -12.011719 6.914062 -12.011719 C 5.285156 -12.011719 3.921875 -11.371094 2.800781 -10.140625 C 1.734375 -8.914062 1.199219 -7.5 1.199219 -5.871094 C 1.199219 -4.21875 1.734375 -2.800781 2.800781 -1.601562 C 3.921875 -0.347656 5.285156 0.265625 6.914062 0.265625 C 8.515625 0.265625 9.875 -0.347656 10.996094 -1.601562 C 11.101562 -1.707031 11.234375 -1.839844 11.34375 -2 L 11.34375 0 Z M 13.210938 0 "/></g></g></g><g fill="#1c2826" fill-opacity="1"><g transform="translate(915.328099, 348.100867)"><g><path d="M 11.503906 -5.871094 C 11.503906 -4.722656 11.101562 -3.710938 10.300781 -2.882812 C 9.5 -2.027344 8.515625 -1.601562 7.367188 -1.601562 C 6.21875 -1.601562 5.230469 -2.027344 4.429688 -2.882812 C 3.628906 -3.710938 3.230469 -4.699219 3.230469 -5.871094 C 3.230469 -7.019531 3.628906 -8.007812 4.429688 -8.859375 C 5.230469 -9.714844 6.21875 -10.140625 7.367188 -10.140625 C 8.515625 -10.140625 9.5 -9.714844 10.300781 -8.859375 C 11.101562 -8.007812 11.503906 -6.992188 11.503906 -5.871094 Z M 3.175781 1.601562 L 1.253906 1.601562 C 1.46875 2.855469 2.027344 3.949219 2.988281 4.882812 C 4.164062 6.085938 5.605469 6.671875 7.285156 6.671875 C 8.941406 6.671875 10.382812 6.085938 11.582031 4.882812 C 12.757812 3.710938 13.371094 2.269531 13.371094 0.585938 L 13.371094 -11.742188 L 11.503906 -11.742188 L 11.503906 -9.769531 C 11.394531 -9.875 11.289062 -10.007812 11.183594 -10.140625 C 10.007812 -11.371094 8.648438 -12.011719 7.097656 -12.011719 C 5.445312 -12.011719 4.082031 -11.371094 2.960938 -10.140625 C 1.894531 -8.914062 1.359375 -7.5 1.359375 -5.871094 C 1.359375 -4.21875 1.894531 -2.800781 2.960938 -1.601562 C 4.082031 -0.347656 5.445312 0.265625 7.097656 0.265625 C 8.699219 0.265625 10.0625 -0.347656 11.183594 -1.601562 C 11.289062 -1.707031 11.394531 -1.839844 11.503906 -1.949219 L 11.503906 0.585938 C 11.503906 1.761719 11.074219 2.75 10.25 3.578125 C 9.421875 4.402344 8.433594 4.804688 7.285156 4.804688 C 6.113281 4.804688 5.125 4.402344 4.296875 3.578125 C 3.710938 2.988281 3.335938 2.347656 3.175781 1.601562 Z M 3.175781 1.601562 "/></g></g></g><g fill="#1c2826" fill-opacity="1"><g transform="translate(936.199178, 348.100867)"><g><path d="M 11.34375 -5.871094 C 11.34375 -4.722656 10.941406 -3.710938 10.140625 -2.882812 C 9.339844 -2.027344 8.355469 -1.601562 7.207031 -1.601562 C 6.03125 -1.601562 5.042969 -2.027344 4.242188 -2.882812 C 3.441406 -3.710938 3.070312 -4.722656 3.070312 -5.871094 C 3.070312 -6.992188 3.441406 -8.007812 4.242188 -8.859375 C 5.042969 -9.714844 6.03125 -10.140625 7.207031 -10.140625 C 8.355469 -10.140625 9.339844 -9.714844 10.140625 -8.859375 C 10.941406 -8.007812 11.34375 -6.992188 11.34375 -5.871094 Z M 13.210938 0 L 13.210938 -11.742188 L 11.34375 -11.742188 L 11.34375 -9.714844 C 11.234375 -9.875 11.101562 -10.007812 10.996094 -10.140625 C 9.875 -11.371094 8.515625 -12.011719 6.914062 -12.011719 C 5.285156 -12.011719 3.921875 -11.371094 2.800781 -10.140625 C 1.734375 -8.914062 1.199219 -7.5 1.199219 -5.871094 C 1.199219 -4.21875 1.734375 -2.800781 2.800781 -1.601562 C 3.921875 -0.347656 5.285156 0.265625 6.914062 0.265625 C 8.515625 0.265625 9.875 -0.347656 10.996094 -1.601562 C 11.101562 -1.707031 11.234375 -1.839844 11.34375 -2 L 11.34375 0 Z M 13.210938 0 "/></g></g></g><g fill="#1c2826" fill-opacity="1"><g transform="translate(956.910112, 348.100867)"><g><path d="M 3.898438 -15.800781 C 3.65625 -16.011719 3.363281 -16.148438 3.042969 -16.148438 C 2.722656 -16.148438 2.429688 -16.011719 2.214844 -15.800781 C 1.976562 -15.558594 1.867188 -15.265625 1.867188 -14.945312 C 1.867188 -14.625 1.976562 -14.332031 2.214844 -14.117188 C 2.429688 -13.878906 2.722656 -13.773438 3.042969 -13.773438 C 3.363281 -13.773438 3.65625 -13.878906 3.898438 -14.117188 C 4.109375 -14.332031 4.242188 -14.625 4.242188 -14.945312 C 4.242188 -15.265625 4.109375 -15.558594 3.898438 -15.800781 Z M 4.003906 0 L 4.003906 -11.742188 L 2.136719 -11.742188 L 2.136719 0 Z M 4.003906 0 "/></g></g></g><g fill="#1c2826" fill-opacity="1"><g transform="translate(968.520028, 348.100867)"><g><path d="M 10.113281 0 L 11.984375 0 L 11.984375 -7.339844 C 11.984375 -8.699219 11.609375 -9.796875 10.914062 -10.621094 C 10.542969 -11.050781 10.113281 -11.371094 9.609375 -11.609375 C 9.074219 -11.851562 8.40625 -11.984375 7.578125 -11.984375 C 6.726562 -11.984375 6.003906 -11.742188 5.363281 -11.316406 C 4.75 -10.914062 4.242188 -10.382812 3.871094 -9.714844 L 3.871094 -11.742188 L 2 -11.742188 L 2 0 L 3.871094 0 L 3.871094 -4.910156 C 3.871094 -6.40625 4.136719 -7.578125 4.699219 -8.460938 C 5.015625 -8.941406 5.417969 -9.339844 5.925781 -9.660156 C 6.40625 -9.953125 7.074219 -10.113281 7.875 -10.113281 C 8.675781 -10.113281 9.234375 -9.820312 9.582031 -9.289062 C 9.929688 -8.753906 10.113281 -8.085938 10.113281 -7.339844 Z M 10.113281 0 "/></g></g></g></svg>