<svg xmlns="http://www.w3.org/2000/svg" xmlns:xlink="http://www.w3.org/1999/xlink" width="500" zoomAndPan="magnify" viewBox="0 0 375 374.999991" height="500" preserveAspectRatio="xMidYMid meet" version="1.0"><defs><clipPath id="8ccb64a324"><path d="M 222 22.261719 L 362.144531 22.261719 L 362.144531 268 L 222 268 Z M 222 22.261719 " clip-rule="nonzero"/></clipPath><clipPath id="59b79c9607"><path d="M 12.644531 25 L 301 25 L 301 353.011719 L 12.644531 353.011719 Z M 12.644531 25 " clip-rule="nonzero"/></clipPath></defs><g clip-path="url(#8ccb64a324)"><path fill="#a2a3aa" d="M 261.671875 121.636719 C 261.671875 155.898438 247.730469 187.59375 224.859375 208.988281 L 232.953125 212.476562 C 259.945312 224.132812 281.773438 243.5625 296.433594 267.703125 L 362.152344 267.703125 L 358.8125 244.890625 C 354.285156 214.03125 334.117188 187.730469 305.519531 175.382812 L 274.882812 162.160156 C 300.214844 152.488281 318.460938 125.734375 318.460938 94.167969 C 318.460938 54.449219 289.628906 22.257812 254.070312 22.257812 C 242.402344 22.257812 231.527344 25.820312 222.097656 31.890625 C 246.175781 52.957031 261.671875 85.328125 261.671875 121.636719 " fill-opacity="1" fill-rule="nonzero"/></g><g clip-path="url(#59b79c9607)"><path fill="#a2a3aa" d="M 242.695312 121.636719 C 242.695312 68.683594 204.257812 25.761719 156.839844 25.761719 C 109.417969 25.761719 70.980469 68.683594 70.980469 121.636719 C 70.980469 163.726562 95.304688 199.398438 129.085938 212.296875 L 88.238281 229.929688 C 50.109375 246.386719 23.214844 281.460938 17.183594 322.597656 L 12.722656 353.015625 L 300.957031 353.015625 L 296.496094 322.601562 C 290.460938 281.460938 263.570312 246.386719 225.441406 229.929688 L 184.59375 212.296875 C 218.371094 199.398438 242.695312 163.726562 242.695312 121.636719 " fill-opacity="1" fill-rule="nonzero"/></g></svg>