<svg xmlns="http://www.w3.org/2000/svg" xmlns:xlink="http://www.w3.org/1999/xlink" width="500" zoomAndPan="magnify" viewBox="0 0 375 374.999991" height="500" preserveAspectRatio="xMidYMid meet" version="1.0"><defs><clipPath id="8873b58b7b"><path d="M 10.269531 10.269531 L 365.019531 10.269531 L 365.019531 365.019531 L 10.269531 365.019531 Z M 10.269531 10.269531 " clip-rule="nonzero"/></clipPath><clipPath id="219f254d6e"><path d="M 56 69.707031 L 319.335938 69.707031 L 319.335938 305 L 56 305 Z M 56 69.707031 " clip-rule="nonzero"/></clipPath></defs><g clip-path="url(#8873b58b7b)"><path fill="#ffffff" d="M 365.019531 187.644531 C 365.019531 190.546875 364.945312 193.445312 364.804688 196.347656 C 364.664062 199.246094 364.449219 202.140625 364.164062 205.027344 C 363.878906 207.917969 363.523438 210.796875 363.097656 213.667969 C 362.671875 216.542969 362.175781 219.398438 361.609375 222.246094 C 361.042969 225.09375 360.40625 227.925781 359.703125 230.742188 C 358.996094 233.558594 358.222656 236.355469 357.378906 239.132812 C 356.539062 241.910156 355.628906 244.664062 354.648438 247.398438 C 353.671875 250.132812 352.628906 252.839844 351.515625 255.523438 C 350.40625 258.203125 349.230469 260.855469 347.988281 263.480469 C 346.746094 266.105469 345.441406 268.695312 344.074219 271.257812 C 342.707031 273.816406 341.273438 276.34375 339.78125 278.832031 C 338.289062 281.320312 336.738281 283.773438 335.125 286.1875 C 333.511719 288.601562 331.839844 290.972656 330.113281 293.304688 C 328.382812 295.636719 326.597656 297.925781 324.757812 300.167969 C 322.914062 302.414062 321.019531 304.609375 319.070312 306.761719 C 317.121094 308.910156 315.117188 311.011719 313.066406 313.066406 C 311.015625 315.117188 308.910156 317.121094 306.761719 319.070312 C 304.609375 321.019531 302.414062 322.914062 300.167969 324.757812 C 297.925781 326.597656 295.636719 328.382812 293.304688 330.113281 C 290.972656 331.839844 288.601562 333.511719 286.1875 335.125 C 283.773438 336.738281 281.320312 338.289062 278.832031 339.78125 C 276.34375 341.273438 273.816406 342.707031 271.257812 344.074219 C 268.695312 345.441406 266.105469 346.746094 263.480469 347.988281 C 260.855469 349.230469 258.203125 350.40625 255.523438 351.515625 C 252.839844 352.628906 250.132812 353.671875 247.398438 354.648438 C 244.664062 355.628906 241.910156 356.539062 239.132812 357.378906 C 236.355469 358.222656 233.558594 358.996094 230.742188 359.703125 C 227.925781 360.40625 225.09375 361.042969 222.246094 361.609375 C 219.398438 362.175781 216.539062 362.671875 213.667969 363.097656 C 210.796875 363.523438 207.917969 363.878906 205.027344 364.164062 C 202.140625 364.449219 199.246094 364.664062 196.347656 364.804688 C 193.445312 364.945312 190.546875 365.019531 187.644531 365.019531 C 184.742188 365.019531 181.839844 364.945312 178.941406 364.804688 C 176.039062 364.664062 173.144531 364.449219 170.257812 364.164062 C 167.367188 363.878906 164.488281 363.523438 161.617188 363.097656 C 158.746094 362.671875 155.886719 362.175781 153.039062 361.609375 C 150.191406 361.042969 147.359375 360.40625 144.542969 359.703125 C 141.730469 358.996094 138.933594 358.222656 136.152344 357.378906 C 133.375 356.539062 130.621094 355.628906 127.886719 354.648438 C 125.152344 353.671875 122.445312 352.628906 119.765625 351.515625 C 117.082031 350.40625 114.429688 349.230469 111.804688 347.988281 C 109.179688 346.746094 106.589844 345.441406 104.027344 344.074219 C 101.46875 342.707031 98.945312 341.273438 96.453125 339.78125 C 93.964844 338.289062 91.511719 336.738281 89.097656 335.125 C 86.683594 333.511719 84.3125 331.839844 81.980469 330.113281 C 79.648438 328.382812 77.363281 326.597656 75.117188 324.757812 C 72.875 322.914062 70.675781 321.019531 68.527344 319.070312 C 66.375 317.121094 64.273438 315.117188 62.21875 313.066406 C 60.167969 311.011719 58.167969 308.910156 56.21875 306.761719 C 54.265625 304.609375 52.371094 302.414062 50.53125 300.167969 C 48.6875 297.925781 46.902344 295.636719 45.175781 293.304688 C 43.445312 290.972656 41.773438 288.601562 40.160156 286.1875 C 38.546875 283.773438 36.996094 281.320312 35.503906 278.832031 C 34.011719 276.34375 32.582031 273.816406 31.210938 271.257812 C 29.84375 268.695312 28.539062 266.105469 27.296875 263.480469 C 26.058594 260.855469 24.882812 258.203125 23.769531 255.523438 C 22.660156 252.839844 21.613281 250.132812 20.636719 247.398438 C 19.660156 244.664062 18.75 241.910156 17.90625 239.132812 C 17.0625 236.355469 16.289062 233.558594 15.582031 230.742188 C 14.878906 227.925781 14.242188 225.09375 13.675781 222.246094 C 13.109375 219.398438 12.613281 216.539062 12.1875 213.667969 C 11.761719 210.796875 11.40625 207.917969 11.121094 205.027344 C 10.835938 202.140625 10.625 199.246094 10.480469 196.347656 C 10.339844 193.445312 10.269531 190.546875 10.269531 187.644531 C 10.269531 184.742188 10.339844 181.839844 10.480469 178.941406 C 10.625 176.039062 10.835938 173.144531 11.121094 170.257812 C 11.40625 167.367188 11.761719 164.488281 12.1875 161.617188 C 12.613281 158.746094 13.109375 155.886719 13.675781 153.039062 C 14.242188 150.191406 14.878906 147.359375 15.582031 144.542969 C 16.289062 141.730469 17.0625 138.933594 17.90625 136.152344 C 18.75 133.375 19.660156 130.621094 20.636719 127.886719 C 21.613281 125.152344 22.660156 122.445312 23.769531 119.765625 C 24.882812 117.082031 26.058594 114.429688 27.296875 111.804688 C 28.539062 109.179688 29.84375 106.589844 31.210938 104.027344 C 32.582031 101.46875 34.011719 98.945312 35.503906 96.453125 C 36.996094 93.964844 38.546875 91.511719 40.160156 89.097656 C 41.773438 86.683594 43.445312 84.3125 45.175781 81.980469 C 46.902344 79.648438 48.6875 77.363281 50.53125 75.117188 C 52.371094 72.875 54.265625 70.675781 56.21875 68.527344 C 58.167969 66.375 60.167969 64.273438 62.21875 62.21875 C 64.273438 60.167969 66.375 58.167969 68.527344 56.21875 C 70.675781 54.269531 72.875 52.371094 75.117188 50.53125 C 77.363281 48.6875 79.648438 46.902344 81.980469 45.175781 C 84.3125 43.445312 86.683594 41.773438 89.097656 40.160156 C 91.511719 38.546875 93.964844 36.996094 96.453125 35.503906 C 98.945312 34.011719 101.46875 32.582031 104.027344 31.210938 C 106.589844 29.84375 109.179688 28.539062 111.804688 27.296875 C 114.429688 26.058594 117.082031 24.882812 119.765625 23.769531 C 122.445312 22.660156 125.152344 21.613281 127.886719 20.636719 C 130.621094 19.660156 133.375 18.75 136.152344 17.90625 C 138.933594 17.0625 141.730469 16.289062 144.542969 15.582031 C 147.359375 14.878906 150.191406 14.242188 153.039062 13.675781 C 155.886719 13.109375 158.746094 12.613281 161.617188 12.1875 C 164.488281 11.761719 167.367188 11.40625 170.257812 11.121094 C 173.144531 10.835938 176.039062 10.625 178.941406 10.480469 C 181.839844 10.339844 184.742188 10.269531 187.644531 10.269531 C 190.546875 10.269531 193.445312 10.339844 196.347656 10.480469 C 199.246094 10.625 202.140625 10.835938 205.027344 11.121094 C 207.917969 11.40625 210.796875 11.761719 213.667969 12.1875 C 216.539062 12.613281 219.398438 13.109375 222.246094 13.675781 C 225.09375 14.242188 227.925781 14.878906 230.742188 15.582031 C 233.558594 16.289062 236.355469 17.0625 239.132812 17.90625 C 241.910156 18.75 244.664062 19.660156 247.398438 20.636719 C 250.132812 21.613281 252.839844 22.660156 255.523438 23.769531 C 258.203125 24.882812 260.855469 26.058594 263.480469 27.296875 C 266.105469 28.539062 268.695312 29.84375 271.257812 31.210938 C 273.816406 32.582031 276.34375 34.011719 278.832031 35.503906 C 281.320312 36.996094 283.773438 38.546875 286.1875 40.160156 C 288.601562 41.773438 290.972656 43.445312 293.304688 45.175781 C 295.636719 46.902344 297.925781 48.6875 300.167969 50.53125 C 302.414062 52.371094 304.609375 54.269531 306.761719 56.21875 C 308.910156 58.167969 311.015625 60.167969 313.066406 62.21875 C 315.117188 64.273438 317.121094 66.375 319.070312 68.527344 C 321.019531 70.675781 322.914062 72.875 324.757812 75.117188 C 326.597656 77.363281 328.382812 79.648438 330.113281 81.980469 C 331.839844 84.3125 333.511719 86.683594 335.125 89.097656 C 336.738281 91.511719 338.289062 93.964844 339.78125 96.453125 C 341.273438 98.945312 342.707031 101.46875 344.074219 104.027344 C 345.441406 106.589844 346.746094 109.179688 347.988281 111.804688 C 349.230469 114.429688 350.40625 117.082031 351.515625 119.765625 C 352.628906 122.445312 353.671875 125.152344 354.648438 127.886719 C 355.628906 130.621094 356.539062 133.375 357.378906 136.152344 C 358.222656 138.933594 358.996094 141.730469 359.703125 144.542969 C 360.40625 147.359375 361.042969 150.191406 361.609375 153.039062 C 362.175781 155.886719 362.671875 158.746094 363.097656 161.617188 C 363.523438 164.488281 363.878906 167.367188 364.164062 170.257812 C 364.449219 173.144531 364.664062 176.039062 364.804688 178.941406 C 364.945312 181.839844 365.019531 184.742188 365.019531 187.644531 Z M 365.019531 187.644531 " fill-opacity="1" fill-rule="nonzero"/></g><g clip-path="url(#219f254d6e)"><path fill="#1c2826" d="M 67.03125 219.011719 C 67.03125 219.011719 62.351562 218.144531 58.019531 220.398438 C 56.546875 221.265625 55.769531 221.960938 58.019531 223 C 60.273438 224.039062 66.335938 227.160156 72.054688 228.027344 C 77.773438 228.894531 82.882812 228.375 83.75 229.328125 C 84.527344 231.757812 87.734375 234.011719 88.859375 234.964844 C 89.46875 236.871094 92.929688 241.207031 95.703125 244.070312 C 98.476562 246.929688 101.335938 247.710938 105.578125 251.351562 C 109.824219 254.992188 116.578125 260.195312 118.140625 261.324219 C 119.699219 262.449219 122.472656 264.703125 124.984375 264.097656 C 127.496094 263.492188 128.972656 263.664062 130.960938 262.625 C 132.953125 261.585938 135.378906 260.976562 133.90625 259.15625 C 135.726562 258.027344 136.332031 255.6875 135.292969 251.957031 C 134.253906 248.230469 130.875 246.320312 130.441406 245.28125 C 130.007812 244.242188 128.535156 239.472656 127.929688 238.257812 C 128.363281 236.089844 127.667969 231.0625 124.636719 227.074219 C 121.605469 223.085938 120.132812 222.042969 121.257812 220.65625 C 122.386719 219.269531 123.769531 218.492188 125.589844 218.316406 C 127.410156 218.144531 130.183594 217.363281 131.394531 216.929688 C 132.609375 216.496094 135.207031 218.835938 135.984375 218.835938 C 136.765625 220.3125 140.578125 223.953125 142.222656 225.167969 C 142.570312 228.113281 143.175781 228.722656 142.832031 234.445312 C 142.484375 240.167969 142.65625 250.832031 142.3125 253.347656 C 141.964844 255.859375 140.492188 259.675781 140.925781 265.226562 C 141.359375 270.773438 141.011719 280.3125 139.625 283.695312 C 138.238281 287.074219 137.976562 288.460938 137.976562 291.152344 C 137.890625 293.230469 134.339844 295.136719 135.035156 297.21875 C 133.734375 297.566406 134.167969 297.652344 133.386719 299.039062 C 132.609375 300.425781 130.183594 303.636719 131.742188 304.15625 C 133.300781 304.675781 139.972656 305.195312 141.703125 303.984375 C 142.65625 303.375 144.996094 298.953125 144.5625 298.867188 C 145.167969 298.257812 145.253906 297.304688 144.910156 295.746094 C 144.5625 294.183594 145.253906 292.972656 146.640625 291.496094 C 148.027344 290.023438 148.632812 288.546875 148.289062 284.039062 C 147.941406 279.53125 149.671875 270.601562 150.453125 268.519531 C 151.230469 266.4375 152.011719 263.75 152.273438 262.277344 C 152.792969 265.917969 154.003906 268.605469 154.523438 271.988281 C 155.042969 275.371094 155.996094 279.789062 155.304688 282.914062 C 154.609375 286.035156 154.699219 288.980469 154.785156 290.195312 C 154.871094 291.410156 151.839844 294.878906 152.359375 296.265625 C 151.40625 296.4375 151.40625 297.21875 150.886719 298.433594 C 150.367188 299.644531 148.460938 302.855469 149.671875 303.027344 C 150.886719 303.203125 158.335938 303.203125 159.027344 302.59375 C 159.722656 301.988281 162.0625 297.738281 161.542969 297.390625 C 162.320312 296.613281 162.0625 295.050781 161.714844 293.664062 C 161.367188 292.277344 163.015625 290.371094 163.964844 288.203125 C 164.917969 286.035156 164.574219 284.472656 163.878906 282.21875 C 163.1875 279.964844 161.976562 270.515625 162.929688 265.398438 C 163.878906 260.28125 162.753906 257.335938 162.496094 253.171875 C 162.234375 249.011719 164.398438 226.121094 164.226562 223 C 169.769531 221.699219 186.402344 215.195312 197.058594 205.746094 C 207.714844 196.292969 216.378906 184.933594 217.070312 183.980469 C 217.765625 183.027344 220.796875 181.035156 220.796875 181.035156 C 220.796875 181.035156 226.859375 183.894531 234.050781 181.554688 C 241.238281 179.210938 244.878906 177.824219 247.820312 177.046875 C 250.769531 176.265625 255.964844 174.097656 257.871094 174.011719 C 259.777344 173.925781 266.707031 174.703125 269.566406 175.832031 C 272.425781 176.957031 281.089844 182.679688 285.160156 186.582031 C 286.113281 187.363281 287.066406 189.964844 290.617188 189.964844 C 294.167969 189.964844 295.296875 188.230469 297.199219 188.144531 C 299.109375 188.054688 301.359375 188.230469 302.140625 186.667969 C 302.832031 187.015625 303.785156 186.320312 304.824219 185.976562 C 305.863281 185.628906 309.332031 184.242188 309.070312 183.460938 C 308.808594 182.679688 303.957031 178.085938 302.832031 177.914062 C 301.707031 177.738281 300.925781 177.824219 299.625 178.433594 C 298.328125 179.039062 297.027344 179.386719 297.289062 180.078125 C 296.246094 179.90625 295.730469 180.511719 295.121094 181.378906 C 294.515625 182.246094 293.128906 182.679688 292.523438 181.46875 C 291.917969 180.253906 290.792969 180.078125 289.578125 179.558594 C 288.367188 179.039062 288.972656 178.257812 283.773438 174.964844 C 278.578125 171.667969 273.8125 167.074219 271.039062 164.558594 C 268.269531 162.046875 265.148438 161.957031 262.378906 162.480469 C 259.605469 163 257.09375 163.171875 257.09375 163.171875 C 257.09375 163.171875 261.25 159.792969 262.636719 158.664062 C 264.023438 157.535156 267.660156 155.976562 270.433594 155.628906 C 273.207031 155.28125 276.238281 154.933594 280.222656 155.714844 C 284.207031 156.496094 293.910156 160.398438 295.902344 161.4375 C 297.894531 162.480469 299.109375 164.039062 302.050781 163.171875 C 305 162.304688 306.125 160.65625 306.730469 160.050781 C 307.335938 159.445312 309.417969 158.488281 310.976562 158.054688 C 312.535156 157.625 312.882812 155.886719 312.882812 155.886719 C 312.882812 155.886719 313.746094 155.800781 314.960938 154.5 C 316.171875 153.203125 319.550781 151.378906 319.03125 150.425781 C 318.511719 149.472656 311.753906 146.699219 310.195312 146.957031 C 308.636719 147.21875 304.566406 150.253906 304.824219 151.035156 C 303.699219 151.464844 303.871094 152.59375 303.527344 153.460938 C 303.179688 154.328125 302.3125 154.761719 301.273438 153.808594 C 300.234375 152.855469 298.761719 153.808594 296.421875 152.507812 C 294.082031 151.207031 281.003906 146.699219 277.191406 144.703125 C 273.378906 142.710938 269.566406 141.667969 265.84375 143.75 C 262.117188 145.832031 260.039062 147.304688 254.667969 148.605469 C 249.296875 149.90625 245.347656 151.746094 243.785156 151.746094 C 243.621094 151.746094 242.375 150.371094 241.683594 149.15625 C 240.988281 147.941406 239.441406 144.183594 236.667969 141.0625 C 233.898438 137.941406 232.300781 131.027344 217.9375 128.140625 C 220.96875 126.410156 223.394531 126.148438 231.015625 127.882812 C 238.640625 129.617188 249.035156 125.714844 252.675781 121.988281 C 255.792969 121.035156 265.582031 114.789062 266.1875 105.511719 C 266.796875 96.234375 265.757812 92.160156 261.769531 82.015625 C 261.425781 80.976562 261.597656 83.230469 261.683594 84.097656 C 260.902344 81.496094 258.480469 76.117188 255.011719 72.910156 C 254.582031 72.390625 256.484375 76.640625 256.574219 77.59375 C 255.273438 75.597656 250.335938 69.703125 249.730469 69.960938 C 249.121094 70.222656 251.117188 73.171875 251.117188 74.125 C 250.335938 73.519531 249.035156 72.738281 248.605469 72.566406 C 248.171875 72.390625 251.980469 79.761719 252.5 82.363281 C 251.289062 80.714844 249.730469 78.546875 249.121094 78.113281 C 248.515625 77.679688 252.242188 85.484375 252.675781 87.476562 C 251.722656 86.351562 250.25 84.269531 249.554688 84.007812 C 248.863281 83.75 253.28125 90.253906 254.0625 93.894531 C 254.839844 97.535156 256.746094 107.417969 254.839844 112.015625 C 252.933594 116.609375 251.808594 118.691406 250.855469 119.472656 C 249.902344 120.253906 245.570312 125.109375 236.042969 125.28125 C 231.710938 125.28125 227.726562 123.980469 223.566406 123.460938 C 219.410156 122.941406 216.550781 123.632812 213.34375 124.847656 C 210.140625 126.0625 208.839844 125.28125 205.722656 126.410156 C 202.605469 127.535156 195.585938 130.222656 186.925781 137.679688 C 178.261719 145.136719 167.433594 159.355469 156.257812 163.953125 C 149.671875 166.554688 144.042969 165.773438 134.601562 169.414062 C 135.15625 167.550781 134.816406 166.957031 134.554688 166.4375 C 134.296875 165.917969 131.839844 164.460938 129.589844 164.722656 C 128.894531 164.722656 128.796875 166.378906 128.882812 167.25 C 128.277344 166.207031 128.550781 164.984375 128.046875 164.636719 C 126.871094 163.828125 120.679688 163.464844 118.449219 167.980469 C 118.105469 168.328125 119.960938 171.0625 119.960938 171.0625 C 119.960938 171.0625 118.023438 168.753906 117.335938 168.667969 C 115.425781 168.425781 111.816406 170.25 107.570312 174.496094 C 103.328125 178.746094 101.59375 181.25 101.832031 182.386719 C 101.929688 182.84375 102.980469 184.761719 104.367188 186.496094 C 102.894531 185.542969 101.441406 183.636719 100.886719 183.671875 C 99.074219 183.792969 93.242188 189.78125 93.007812 192.503906 C 93.125 193.355469 95.445312 195.601562 95.792969 195.859375 C 94.839844 195.429688 92.992188 193.542969 91.980469 193.789062 C 90.136719 194.238281 85.539062 199 83.894531 203.597656 C 82.25 208.191406 81.785156 213.554688 82.128906 214.539062 C 82.324219 215.113281 83.921875 216.148438 84.617188 216.582031 C 83.492188 216.324219 82.074219 215.675781 81.699219 215.910156 C 81.015625 216.339844 81.152344 218.058594 81.152344 218.058594 C 81.152344 218.058594 77.859375 215.285156 74.828125 213.289062 C 71.792969 211.292969 69.023438 209.820312 65.210938 209.644531 C 61.398438 209.472656 59.234375 209.820312 59.058594 210.945312 C 58.886719 212.074219 61.921875 213.894531 63.304688 215.371094 C 64.691406 216.84375 67.03125 219.011719 67.03125 219.011719 " fill-opacity="1" fill-rule="nonzero"/></g></svg>