<svg xmlns="http://www.w3.org/2000/svg" xmlns:xlink="http://www.w3.org/1999/xlink" width="500" zoomAndPan="magnify" viewBox="0 0 375 374.999991" height="500" preserveAspectRatio="xMidYMid meet" version="1.0"><defs><clipPath id="c5875c8ce3"><path d="M 27.613281 10.917969 L 347 10.917969 L 347 364.167969 L 27.613281 364.167969 Z M 27.613281 10.917969 " clip-rule="nonzero"/></clipPath></defs><g clip-path="url(#c5875c8ce3)"><path fill="#8c5383" d="M 293.625 260.597656 C 280.160156 260.597656 268.113281 265.917969 258.902344 274.257812 L 132.574219 200.648438 C 133.460938 196.566406 134.171875 192.488281 134.171875 188.234375 C 134.171875 183.976562 133.460938 179.898438 132.574219 175.820312 L 257.476562 102.925781 C 267.042969 111.789062 279.621094 117.289062 293.621094 117.289062 C 323.027344 117.289062 346.765625 93.523438 346.765625 64.085938 C 346.765625 34.648438 323.027344 10.875 293.621094 10.875 C 264.210938 10.875 240.472656 34.644531 240.472656 64.082031 C 240.472656 68.335938 241.179688 72.417969 242.070312 76.496094 L 117.167969 149.390625 C 107.601562 140.523438 95.019531 135.027344 81.023438 135.027344 C 51.617188 135.027344 27.875 158.789062 27.875 188.230469 C 27.875 217.671875 51.617188 241.4375 81.023438 241.4375 C 95.019531 241.4375 107.597656 235.9375 117.148438 227.074219 L 243.289062 300.851562 C 242.402344 304.574219 241.871094 308.476562 241.871094 312.378906 C 241.871094 340.933594 265.078125 364.167969 293.605469 364.167969 C 322.128906 364.167969 345.335938 340.933594 345.335938 312.378906 C 345.335938 283.824219 322.128906 260.589844 293.605469 260.589844 Z M 293.625 260.597656 " fill-opacity="1" fill-rule="nonzero"/></g></svg>