<svg xmlns="http://www.w3.org/2000/svg" xmlns:xlink="http://www.w3.org/1999/xlink" width="500" zoomAndPan="magnify" viewBox="0 0 375 374.999991" height="500" preserveAspectRatio="xMidYMid meet" version="1.0"><defs><clipPath id="be5eea112b"><path d="M 18 0 L 357.476562 0 L 357.476562 375 L 18 375 Z M 18 0 " clip-rule="nonzero"/></clipPath></defs><g clip-path="url(#be5eea112b)"><path fill="#ffffff" d="M 300.601562 265.054688 C 286.285156 265.054688 273.472656 270.703125 263.675781 279.554688 L 129.339844 201.410156 C 130.28125 197.082031 131.035156 192.75 131.035156 188.230469 C 131.035156 183.714844 130.28125 179.382812 129.339844 175.054688 L 262.160156 97.671875 C 272.332031 107.082031 285.710938 112.921875 300.59375 112.921875 C 331.867188 112.921875 357.113281 87.6875 357.113281 56.4375 C 357.113281 25.1875 331.867188 -0.046875 300.59375 -0.046875 C 269.324219 -0.046875 244.078125 25.1875 244.078125 56.4375 C 244.078125 60.953125 244.828125 65.285156 245.777344 69.613281 L 112.953125 147 C 102.78125 137.582031 89.402344 131.75 74.519531 131.75 C 43.246094 131.75 18.003906 156.976562 18.003906 188.230469 C 18.003906 219.484375 43.25 244.710938 74.519531 244.710938 C 89.402344 244.710938 102.78125 238.875 112.9375 229.460938 L 247.074219 307.785156 C 246.132812 311.738281 245.566406 315.878906 245.566406 320.019531 C 245.566406 350.335938 270.246094 375 300.578125 375 C 330.914062 375 355.589844 350.335938 355.589844 320.019531 C 355.589844 289.707031 330.910156 265.042969 300.578125 265.042969 Z M 300.601562 265.054688 " fill-opacity="1" fill-rule="nonzero"/></g></svg>